<ttFont>
          <CharString index="0">
            rmoveto
            156 vlineto
            407 -223 263 -344.99 -339 -227 -263 -407 vhcurveto
            -156 vlineto
            -408 228.99 -262 339.01 345 221 262 408 vhcurveto
            -122 158 rmoveto
            -158 vlineto
            -346.01 -161 -216 -283.01 -275.01 -169.98 216 346.01 vhcurveto
            158 vlineto
            344 168 215.98 275 281.99 164 -215.98 -344 vhcurveto
            endchar
          </CharString>
          <CharString index="1">
            rmoveto
            72.99 vlineto
            288.01 -153 206.99 -275 -246.99 -217 -214 -334.01 113 callgsubr
            vlineto
            -310 203 -221 282.01 193.99 -83 callsubr
            87 105 71 vhcurveto
            -76 57 rlineto
            -103 -78.01 -97 -45 -128 hhcurveto
            -220 -150.02 191 239 hvcurveto
            23 vlineto
            344 466 rmoveto
            203 101 -170 -181 4 hvcurveto
            -13 -646.99 vlineto
            219 -2 callgsubr
            131.02 145 -26 callgsubr
            hhcurveto
            endchar
          </CharString>
          <CharString index="2">
            119.99 return
          </CharString>
          <CharString index="3">
            rmoveto
            523.02 vlineto
            234.99 -163 117 -231 vhcurveto
            hintmask 10111011
            -81 callgsubr
            hintmask 10111101
            -99 callgsubr
            hintmask 01111101
            -90 callgsubr
            hintmask 10111101
            -95 callgsubr
          </CharString>
          <CharString index="4">
            rmoveto
            -122.98 -985.99 hlineto
            -255 -163 -131 -227 -225.02 -163.99 131 255 vhcurveto
            985.99 -122.02 -985.99 vlineto
            -328.01 221.03 -161.99 290 284 228.99 161.99 328.01 vhcurveto
            endchar
          </CharString>
          <CharString index="5">
            128 hlineto
            -551 59 callsubr
            -27.01 hlineto
            -59 callgsubr
            hlineto
            -550.01 50 callsubr
            128 hlineto
            150 407.98 rlineto
            662.02 hlineto
            -623 105 rmoveto
            return
          </CharString>
          <CharString index="6">
            112 callsubr
            -785 hlineto
            -196 -135 -99 -188.99 -190.02 -36 callgsubr
            99 196 vhcurveto
            785 -118 -785 vlineto
            -263 189.99 -132.97 254.02 246.99 197 132.97 263 vhcurveto
            endchar
          </CharString>
          <CharString index="7">
            1163.98 -63 callgsubr
            -139 hlineto
            -324 -543.01 -403 543.01 rlineto
            -42 callsubr
            hlineto
            251 -338 rlineto
            -142 -65 -70 -127 -194.99 vvcurveto
            -442 -83 callsubr
            474.99 vlineto
            138 47 26 callgsubr
            97 51 vhcurveto
            563 -759.99 rlineto
            137 hlineto
            -386 520.99 rlineto
            return
          </CharString>
          <CharString index="8">
            120.01 return
          </CharString>
          <CharString index="9">
            102.01 return
          </CharString>
          <CharString index="10">
            118.99 return
          </CharString>
          <CharString index="11">
            rmoveto
            450.99 577 -98 callsubr
            -577 407 661.01 -88 callsubr
            -661.01 53 callsubr
            82 hlineto
            703 61 callgsubr
            endchar
          </CharString>
          <CharString index="12">
            -100 -82 callsubr
            707.99 29 callsubr
            707.99 -30 callsubr
            -132 -80 callgsubr
          </CharString>
          <CharString index="13">
            -93 callsubr
            238 hlineto
            -62 105 callsubr
            -38.99 -143 -36 callgsubr
            vvcurveto
            -412 vlineto
            -141 -48 -63 -128 -22 -24 1.99 3 -25 vhcurveto
            -101 vlineto
            -4.98 34 30 -3 32.99 hhcurveto
            177 92 99 203.99 hvcurveto
            423.01 vlineto
            139 37 -18 callsubr
            54 70 vhcurveto
            return
          </CharString>
          <CharString index="14">
            -101.01 return
          </CharString>
          <CharString index="15">
            rmoveto
            296 -2 186 76 callsubr
            318.01 vvcurveto
            703 -773 -93 callsubr
            651 -634 vlineto
            -216.99 -130.99 -122 -228 -6 vhcurveto
            -89 -1 -96.99 14.99 -115 33 -22 -17 callgsubr
            rcurveline
            -36 120 104 -17.98 98 hhcurveto
            return
          </CharString>
          <CharString index="16">
            -328 -6 115 -109 -68 callgsubr
            hstemhm
            431.98 -99 callsubr
            hintmask 10110000
            39 callsubr
            -6 rmoveto
            217 37 callgsubr
            170.99 178 21 hvcurveto
            8 hlineto
            hintmask 01110000
            104 callsubr
            -343 rlineto
            -97 callsubr
            hlineto
            -83.99 385.99 rlineto
            -11.02 52 -6.99 66 54 vvcurveto
            609 -389.02 -93 callsubr
            269 -604 vlineto
            hintmask 10110000
            -23 -187 -129.99 -157 -221 -9 rrcurveto
            -13 -13 0 2.99 -1 callsubr
            hvcurveto
            -114.97 vlineto
            -2 11 11 -1 11 hhcurveto
            endchar
          </CharString>
          <CharString index="17">
            192 0 43 364.98 105 793 149.99 -40.95001 -97 callgsubr
            return
          </CharString>
          <CharString index="18">
            1320 rmoveto
            -76 callgsubr
            30 44 callgsubr
            -30 -13 callgsubr
            -64 callsubr
            -73 callgsubr
            return
          </CharString>
          <CharString index="19">
            102.99 return
          </CharString>
          <CharString index="20">
            45.02 return
          </CharString>
          <CharString index="21">
            rmoveto
            -79 callgsubr
            30 28 36 37 -30 113 callsubr
            169 callsubr
            81 callgsubr
          </CharString>
          <CharString index="22">
            629.99 -76 callsubr
            rmoveto
            266.02 78 callsubr
            180.98 270.01 hvcurveto
            427.99 vlineto
            208 -93 111 -175 -48 callsubr
            -73.02 -23 -40 148 callgsubr
            vhcurveto
            -2 callgsubr
            -86 rlineto
            29 88 callsubr
            52 14.99 26 callsubr
            hhcurveto
            114.01 58 -75 103 callsubr
            hvcurveto
            -420 vlineto
            -209 -129 -139 -193 -193.99 -129 139 209 vhcurveto
            return
          </CharString>
          <CharString index="23">
            rmoveto
            612.99 vlineto
            300.01 -151 145 -308 vhcurveto
            -270.01 -93 callsubr
            266.02 hlineto
            243 98 -100 -244 hvcurveto
            -619.99 -670 -66 callsubr
            936 14 callsubr
            vlineto
            return
          </CharString>
          <CharString index="24">
            119.01 return
          </CharString>
          <CharString index="25">
            0 -68 callgsubr
            hstem
            return
          </CharString>
          <CharString index="26">
            121 vstem
            973.99 -63 callgsubr
            -816.99 -93 callsubr
            79 callsubr
            hlineto
            -63 -87 -41 -174 1 -42 callsubr
            1.99 -176 rcurveline
            -49 92.02 70 -12.99 163 hhcurveto
            68 callsubr
            -111 -49 6 21 -46 hvcurveto
            126.02 vlineto
            129 36 39 callgsubr
            54.99 80 vhcurveto
            456.01 -1481.99 121 hlineto
            return
          </CharString>
          <CharString index="27">
            241 -51 -38 callsubr
            -88 -89 vvcurveto
            -101 -97 -93 -182 -42 callsubr
            -157 52 170 -11 vhcurveto
            -119 hlineto
            -169 28 callsubr
            -154.99 275 242.02 157 124 102 callgsubr
            172 -117 87.02 -262 26 callsubr
            vhcurveto
            -243.02 55 -46 26 callsubr
            26 callgsubr
            vvcurveto
            -88 callgsubr
            75 -3 callgsubr
            187 vhcurveto
            return
          </CharString>
          <CharString index="28">
            -1455.98 return
          </CharString>
          <CharString index="29">
            -45.02 return
          </CharString>
          <CharString index="30">
            88.99 return
          </CharString>
          <CharString index="31">
            -20.99 return
          </CharString>
          <CharString index="32">
            rmoveto
            -117.99 -1066 hlineto
            -82 173 196 -42.98 178 hhcurveto
            return
          </CharString>
          <CharString index="33">
            -31.99 return
          </CharString>
          <CharString index="34">
            -1164.98 return
          </CharString>
          <CharString index="35">
            452.99 -104 callgsubr
            364.01 -104 callgsubr
            return
          </CharString>
          <CharString index="36">
            1166.99 return
          </CharString>
          <CharString index="37">
            -97 callgsubr
            hstem
            return
          </CharString>
          <CharString index="38">
            1455.98 return
          </CharString>
          <CharString index="39">
            rmoveto
            171 callsubr
            51 59 callgsubr
            84 callgsubr
            -51 114 callsubr
            79 callgsubr
            -54 callgsubr
            -36 -45 -78 callsubr
            -10 callgsubr
            -34 40 callsubr
            52 -10 callgsubr
            34 -87 callsubr
            45 -54 callgsubr
            36 -52 hvcurveto
            return
          </CharString>
          <CharString index="40">
            -118.99 return
          </CharString>
          <CharString index="41">
            -101.99 return
          </CharString>
          <CharString index="42">
            66.99 return
          </CharString>
          <CharString index="43">
            -37.99 return
          </CharString>
          <CharString index="44">
            286.98 523 rmoveto
            122 644 -350.99 -93 callsubr
            228.99 hlineto
            return
          </CharString>
          <CharString index="45">
            -271.01 12 callsubr
            232 321 hvcurveto
            184 vlineto
            330.02 163 220 269.98 250 101 callgsubr
            -135 -235 30 vhcurveto
            123 hlineto
            299 -30 -186 176 -311.01 hhcurveto
            -339.99 -216 -263 -393.99 hvcurveto
            -182 vlineto
            return
          </CharString>
          <CharString index="46">
            104 593.99 -55 callgsubr
            548.01 105 return
          </CharString>
          <CharString index="47">
            278.99 return
          </CharString>
          <CharString index="48">
            66 callgsubr
            172.99 134 vstem
            239.98 1320 rmoveto
            37 30 44 callgsubr
            -30 -13 callgsubr
            -37 -37.99 -86 callgsubr
            174 callgsubr
          </CharString>
          <CharString index="49">
            -22 40 callgsubr
            -11 -77 callsubr
            75 vvcurveto
            return
          </CharString>
          <CharString index="50">
            -60 callsubr
            hstem
            return
          </CharString>
          <CharString index="51">
            108.01 return
          </CharString>
          <CharString index="52">
            122.98 return
          </CharString>
          <CharString index="53">
            153.99 return
          </CharString>
          <CharString index="54">
            rmoveto
            83 -22 rlineto
            28 38 -76 callgsubr
            23 85 hhcurveto
            -99 callsubr
            -65 callsubr
            -69 10 callsubr
            -110 -53 -70 -122 -92 -71 46 -12 callsubr
            -1 callgsubr
            hvcurveto
            -105 hlineto
            -147 11 130 -76 42 callsubr
            hhcurveto
            194 86 -83 callsubr
            return
          </CharString>
          <CharString index="55">
            88 hstemhm
            79.99 105 -83 105 324.98999 105 -83 105 hintmask 11110010
            503.99 return
          </CharString>
          <CharString index="56">
            358.01001 87 187 -88 callgsubr
            hstem
            -71 callgsubr
            104 357.98999 104.01 vstem
            408.99 return
          </CharString>
          <CharString index="57">
            292 793 291.98 -793 rlineto
            endchar
          </CharString>
          <CharString index="58">
            -11 callsubr
            405.01 -105 callsubr
            return
          </CharString>
          <CharString index="59">
            -78.99 return
          </CharString>
          <CharString index="60">
            -249 -94 207 231 hvcurveto
            42 vlineto
            229 14 callsubr
            209 246 164 129 -28 callsubr
            -175 10 vhcurveto
            114 hlineto
            235 -10 -175 28 callsubr
            -232 hhcurveto
            -301 -159 -235.99 -304 hvcurveto
            -42 vlineto
            return
          </CharString>
          <CharString index="61">
            vvcurveto
            140 -115 77 -153 -153 -113.99 -77 -140 -81 52 -64 81 return
          </CharString>
          <CharString index="62">
            -191 -279 rlineto
            105 hlineto
            return
          </CharString>
          <CharString index="63">
            -84.99 return
          </CharString>
          <CharString index="64">
            95.99 return
          </CharString>
          <CharString index="65">
            -136.99 return
          </CharString>
          <CharString index="66">
            -77 callgsubr
            -97 callsubr
            90 callsubr
            259.01 -3 callgsubr
            -259.01 -4 callsubr
            vlineto
            23 callgsubr
            return
          </CharString>
          <CharString index="67">
            1504.99 rmoveto
            2 callsubr
            -21 callgsubr
            182 callsubr
            -45 -78 callsubr
            31 -34 51 52 31 34 -87 callsubr
            45 -31 36 -52 hvcurveto
            return
          </CharString>
          <CharString index="68">
            -76 callsubr
            -104 callgsubr
            918.99 6 callgsubr
            return
          </CharString>
          <CharString index="69">
            48.99 return
          </CharString>
          <CharString index="70">
            150.02 return
          </CharString>
          <CharString index="71">
            -109.02 return
          </CharString>
          <CharString index="72">
            rmoveto
            -48 callgsubr
            10.02 hlineto
            -240 25 callsubr
            -33 callsubr
            return
          </CharString>
          <CharString index="73">
            12 callgsubr
            12.99 138 callsubr
            return
          </CharString>
          <CharString index="74">
            100 callgsubr
            -255 rlineto
            -12 return
          </CharString>
          <CharString index="75">
            -69 callsubr
            -122.99 -1246 vlineto
            -837.02 1246 rlineto
            43 callsubr
            -79 callsubr
            -56 callgsubr
            1245.98 hlineto
            836.02 -1245.98 rlineto
            endchar
          </CharString>
          <CharString index="76">
            64 hlineto
            284 hlineto
            322 222 211.99 321 hvcurveto
            98 vlineto
            321 -223 212.99 -315 vhcurveto
            419 -631.99 rmoveto
            -259.01 -162 148 callsubr
            -263 vhcurveto
            -228 return
          </CharString>
          <CharString index="77">
            hmoveto
            122 823.99 hlineto
            216 return
          </CharString>
          <CharString index="78">
            78.99 return
          </CharString>
          <CharString index="79">
            -107.01 return
          </CharString>
          <CharString index="80">
            -119.01 return
          </CharString>
          <CharString index="81">
            125.99 return
          </CharString>
          <CharString index="82">
            234.99 1320 rmoveto
            38 89 callsubr
            44 callgsubr
            107 callsubr
            -13 callgsubr
            -38 -73 callgsubr
            return
          </CharString>
          <CharString index="83">
            vlineto
            154 27 callgsubr
            86 116 117 60 -86 -154 vhcurveto
            endchar
          </CharString>
          <CharString index="84">
            -217.99 return
          </CharString>
          <CharString index="85">
            121 vstem
            892.99 hmoveto
            121 721.98 hlineto
            300.01 -150 145 -309 vhcurveto
            -396 -93 callsubr
            393.01 hlineto
            241.99 99 -100 -244 hvcurveto
            return
          </CharString>
          <CharString index="86">
            232 -20 rmoveto
            -26 callgsubr
            98 101 204 hvcurveto
            882 -379 -93 callsubr
            257 -771.99 vlineto
            -144 -51 callgsubr
            -65 -116 -59 -52 5 8.01 -36 vhcurveto
            return
          </CharString>
          <CharString index="87">
            95 hvcurveto
            hintmask 11110010
            1 -636 rmoveto
            43 callgsubr
            -76.99 return
          </CharString>
          <CharString index="88">
            -121 -219.02 hvcurveto
            return
          </CharString>
          <CharString index="89">
            136.99 return
          </CharString>
          <CharString index="90">
            116 callsubr
            63.02 vlineto
            72 callsubr
            -104 118 -181 vhcurveto
            -1 -460 rmoveto
            -111.98 -61 -22 callgsubr
            return
          </CharString>
          <CharString index="91">
            -76 callgsubr
            hvcurveto
            return
          </CharString>
          <CharString index="92">
            100 callsubr
            117 callgsubr
            586 -1065.98 122.02 38 callgsubr
            191 101.01 vlineto
            return
          </CharString>
          <CharString index="93">
            3 -42 callsubr
            rlineto
            115 1082 hlineto
            endchar
          </CharString>
          <CharString index="94">
            106.99 return
          </CharString>
          <CharString index="95">
            90.01 return
          </CharString>
          <CharString index="96">
            117.99 return
          </CharString>
          <CharString index="97">
            60 -20 -104 callgsubr
            918 -104 callgsubr
            153.01 278.99 98 callgsubr
            725.99998 -99 callsubr
            vstem
            return
          </CharString>
          <CharString index="98">
            89 182 callgsubr
            353.01001 41 callsubr
            vstem
            355.98 return
          </CharString>
          <CharString index="99">
            3 callsubr
            hstem
            return
          </CharString>
          <CharString index="100">
            -303 rmoveto
            20 callgsubr
            return
          </CharString>
          <CharString index="101">
            -71 callgsubr
            13.01 -71 callgsubr
            hstemhm
            return
          </CharString>
          <CharString index="102">
            266.99 return
          </CharString>
          <CharString index="103">
            134.99 return
          </CharString>
          <CharString index="104">
            -77.99 return
          </CharString>
          <CharString index="105">
            107.01 return
          </CharString>
          <CharString index="106">
            -14.99 return
          </CharString>
          <CharString index="107">
            -19 callgsubr
            116 278.99 97 callsubr
            779.00002 -55 callsubr
            vstem
            return
          </CharString>
          <CharString index="108">
            268 163 217.99 280 257 -140 221 -279 vhcurveto
            -12 -874 rmoveto
            -195.99 -156 162.02 268.98 hvcurveto
            return
          </CharString>
          <CharString index="109">
            -52 4 callgsubr
            52 return
          </CharString>
          <CharString index="110">
            0 43 1372.01999 -97 callgsubr
            return
          </CharString>
          <CharString index="111">
            11 callgsubr
            -105 callsubr
            return
          </CharString>
          <CharString index="112">
            -97 callsubr
            vstem
            return
          </CharString>
          <CharString index="113">
            36 -79 callgsubr
            return
          </CharString>
          <CharString index="114">
            -69 callsubr
            rmoveto
            return
          </CharString>
          <CharString index="115">
            rmoveto
            99 callsubr
            hlineto
            -295.02 -379 rlineto
            -6 vlineto
            -13 vlineto
            295.02 -379 rlineto
            71 callsubr
            hlineto
            -275.99 389 rlineto
            return
          </CharString>
          <CharString index="116">
            -120.01 return
          </CharString>
          <CharString index="117">
            -102.01 return
          </CharString>
          <CharString index="118">
            77.99 return
          </CharString>
          <CharString index="119">
            -153.99 return
          </CharString>
          <CharString index="120">
            83.99 return
          </CharString>
          <CharString index="121">
            94.99 return
          </CharString>
          <CharString index="122">
            121 hintmask 10111000
            612.99 139 callgsubr
            -156 -111 -66 -110 -71 hvcurveto
            610.02 -60 callgsubr
            vlineto
            hintmask 01111000
            -1536 return
          </CharString>
          <CharString index="123">
            hhcurveto
            11 -88 callgsubr
            -17 hlineto
            -269 -159.99 -157 -285 hvcurveto
            return
          </CharString>
          <CharString index="124">
            -11 57 -21.01 -77 vvcurveto
            -85 10 callsubr
            -36 -99 vhcurveto
            7 -77 rlineto
            187 -2 callsubr
            80.02 -97 callsubr
            return
          </CharString>
          <CharString index="125">
            -80.02 -47 callgsubr
            -51 -95 -96.01 -47 callgsubr
            51 80.02 82.99 -65 callsubr
            return
          </CharString>
          <CharString index="126">
            88 182 callgsubr
            340.01001 106 vstem
            189 callgsubr
            return
          </CharString>
          <CharString index="127">
            -542 3 callsubr
            return
          </CharString>
          <CharString index="128">
            -44 callgsubr
            -28 -37 -54 callgsubr
            29 return
          </CharString>
          <CharString index="129">
            109 87 -22 callgsubr
            129 hvcurveto
            return
          </CharString>
          <CharString index="130">
            -87 callsubr
            -74 callsubr
            35 return
          </CharString>
          <CharString index="131">
            73.01 return
          </CharString>
          <CharString index="132">
            256.98 return
          </CharString>
          <CharString index="133">
            59.99 return
          </CharString>
          <CharString index="134">
            71.99 return
          </CharString>
          <CharString index="135">
            148.99 return
          </CharString>
          <CharString index="136">
            122 vstem
            return
          </CharString>
          <CharString index="137">
            -97 callgsubr
            153 128 hstemhm
            168.98 134 -116.98999 -49 callsubr
            return
          </CharString>
          <CharString index="138">
            591.99 6 callgsubr
            -38 callsubr
            479 vstem
            527.99 591.99 rmoveto
            102 -479 -102 vlineto
            endchar
          </CharString>
          <CharString index="139">
            vstem
            343 hmoveto
            126 hlineto
            -175 38 callgsubr
            rlineto
            310 hlineto
            1 101.01 rlineto
            -525 -96.01 hlineto
            91 -12 rlineto
            return
          </CharString>
          <CharString index="140">
            rmoveto
            60 -596.99 -89 484.99 vlineto
            -364.99 return
          </CharString>
          <CharString index="141">
            -88 -64 -55 -115.02 -110.98 -79.02 60 return
          </CharString>
          <CharString index="142">
            88 hstem
            87 105 353.99 105 vstem
            651 return
          </CharString>
          <CharString index="143">
            -84.01 return
          </CharString>
          <CharString index="144">
            79.01 return
          </CharString>
          <CharString index="145">
            -48.99 return
          </CharString>
          <CharString index="146">
            49.99 return
          </CharString>
          <CharString index="147">
            51.02 return
          </CharString>
          <CharString index="148">
            105.98 return
          </CharString>
          <CharString index="149">
            135.99 return
          </CharString>
          <CharString index="150">
            -123.99 return
          </CharString>
          <CharString index="151">
            rmoveto
            -127 513 -25.99 hlineto
            -84 hlineto
            -397 -535 3 return
          </CharString>
          <CharString index="152">
            -44 callsubr
            -127 hvcurveto
            89 57 callgsubr
            171 callgsubr
            return
          </CharString>
          <CharString index="153">
            122 51 callsubr
            return
          </CharString>
          <CharString index="154">
            -3 callsubr
            -61 -83 vhcurveto
            71 -52 rlineto
            87 -29 callsubr
            53 120.02 -55 callsubr
            vvcurveto
            endchar
          </CharString>
          <CharString index="155">
            -35 -45 -78 callsubr
            return
          </CharString>
          <CharString index="156">
            -20 104 1331.01999 -97 callgsubr
            return
          </CharString>
          <CharString index="157">
            -79 callsubr
            rlineto
            return
          </CharString>
          <CharString index="158">
            vstem
            -63 callsubr
            return
          </CharString>
          <CharString index="159">
            1420.98 rmoveto
            122 callsubr
            -67 callsubr
            -118.01 vlineto
            -105 -31 125 callsubr
            return
          </CharString>
          <CharString index="160">
            vlineto
            -120 -73 callsubr
            return
          </CharString>
          <CharString index="161">
            109 -53 vhcurveto
            520.99 vlineto
            -56 callsubr
            47 -12 callsubr
            98 173 hhcurveto
            220 return
          </CharString>
          <CharString index="162">
            -27 callgsubr
            7 callgsubr
            return
          </CharString>
          <CharString index="163">
            1256.98 140 callsubr
            return
          </CharString>
          <CharString index="164">
            hstemhm
            -57 callgsubr
            return
          </CharString>
          <CharString index="165">
            -64 callgsubr
            rmoveto
            return
          </CharString>
          <CharString index="166">
            -69 callsubr
            rlineto
            return
          </CharString>
          <CharString index="167">
            -5 callsubr
            hstem
            return
          </CharString>
          <CharString index="168">
            -64 callgsubr
            rlineto
            return
          </CharString>
          <CharString index="169">
            -632 0 43 1200.99 -57 callsubr
            164 callsubr
            -92 callgsubr
            return
          </CharString>
          <CharString index="170">
            -239.99 91 callsubr
            return
          </CharString>
          <CharString index="171">
            -20 -104 callgsubr
            918 6 callgsubr
            return
          </CharString>
          <CharString index="172">
            -153 -75 callsubr
            return
          </CharString>
          <CharString index="173">
            -51 callgsubr
            vhcurveto
            return
          </CharString>
          <CharString index="174">
            -98 callsubr
            rmoveto
            return
          </CharString>
          <CharString index="175">
            -83 callgsubr
            vlineto
            return
          </CharString>
          <CharString index="176">
            -76 callsubr
            -55 callgsubr
            -83.98999 159 callgsubr
            return
          </CharString>
          <CharString index="177">
            hstem
            358.99 105 vstem
            463.99 return
          </CharString>
          <CharString index="178">
            105.99 return
          </CharString>
          <CharString index="179">
            199.99 return
          </CharString>
          <CharString index="180">
            154.99 return
          </CharString>
          <CharString index="181">
            75.98 return
          </CharString>
          <CharString index="182">
            160.99 return
          </CharString>
          <CharString index="183">
            162.98 return
          </CharString>
          <CharString index="184">
            9.01 return
          </CharString>
          <CharString index="185">
            176.99 return
          </CharString>
          <CharString index="186">
            130.99 return
          </CharString>
          <CharString index="187">
            -195.02 103 callgsubr
            hvcurveto
            endchar
          </CharString>
          <CharString index="188">
            vlineto
            -422.01 262.98 -301.98 340.01 return
          </CharString>
          <CharString index="189">
            -141 262 260 203 141 147 callsubr
            171 -111 133 return
          </CharString>
          <CharString index="190">
            43 1083.03 -70 callsubr
            return
          </CharString>
          <CharString index="191">
            hstem
            78 callsubr
            -92 callgsubr
            return
          </CharString>
          <CharString index="192">
            vhcurveto
            -109 -43 110 -126 hhcurveto
            return
          </CharString>
          <CharString index="193">
            11 callsubr
            74 return
          </CharString>
          <CharString index="194">
            75.02 return
          </CharString>
          <CharString index="195">
            62.02 return
          </CharString>
          <CharString index="196">
            29.99 return
          </CharString>
          <CharString index="197">
            983.98 return
          </CharString>
          <CharString index="198">
            25 callsubr
            9 callgsubr
            return
          </CharString>
          <CharString index="199">
            -189 75 callsubr
            -87.99 257 -63.02 vhcurveto
            return
          </CharString>
          <CharString index="200">
            rmoveto
            147 callgsubr
            333 30 39 callsubr
            rlineto
            -383 vlineto
            endchar
          </CharString>
          <CharString index="201">
            105 -50.95 60 callgsubr
            122 callgsubr
            121 return
          </CharString>
          <CharString index="202">
            98 callsubr
            33 99 callgsubr
            -33 36 -53 hvcurveto
            return
          </CharString>
          <CharString index="203">
            -61 callgsubr
            endchar
          </CharString>
          <CharString index="204">
            176 callgsubr
            100 callsubr
            return
          </CharString>
          <CharString index="205">
            -35.98 53 53 return
          </CharString>
          <CharString index="206">
            -105.99 return
          </CharString>
          <CharString index="207">
            122.01 return
          </CharString>
          <CharString index="208">
            142.99 return
          </CharString>
          <CharString index="209">
            457.99 return
          </CharString>
          <CharString index="210">
            -147.99 return
          </CharString>
          <CharString index="211">
            67.01 return
          </CharString>
          <CharString index="212">
            -72.99 return
          </CharString>
          <CharString index="213">
            -43.99 return
          </CharString>
          <CharString index="214">
            -29.99 return
          </CharString>
          <CharString index="215">
            58 vhcurveto
            hintmask 11101100
            -494 334 rmoveto
            180.99 128 111 return
          </CharString>
          <CharString index="216">
            -197 881.01 rcurveline
            -122 hlineto
            200 -881.01 return
          </CharString>
          <CharString index="217">
            hstem
            -26 callsubr
            123 return
          </CharString>
          <CharString index="218">
            1475.99 rmoveto
            return
          </CharString>
          <CharString index="219">
            rmoveto
            -60 callgsubr
            return
          </CharString>
          <CharString index="220">
            28 -85 callgsubr
            return
          </CharString>
          <CharString index="221">
            hvcurveto
            437 hmoveto
            return
          </CharString>
          <CharString index="222">
            53 59 callgsubr
            46 47 -74 callsubr
            37 -53 hvcurveto
            return
          </CharString>
          <CharString index="223">
            56 callgsubr
            263.98 hvcurveto
            return
          </CharString>
          <CharString index="224">
            182 callsubr
            -45 -45 31 -34.02 51 52 return
          </CharString>
          <CharString index="225">
            234 hlineto
            255 164 -165 -263.98 hvcurveto
            endchar
          </CharString>
          <CharString index="226">
            155.99 -105 callsubr
            return
          </CharString>
          <CharString index="227">
            -177.99 return
          </CharString>
          <CharString index="228">
            158.99 return
          </CharString>
          <CharString index="229">
            115.02 return
          </CharString>
          <CharString index="230">
            -142.99 return
          </CharString>
          <CharString index="231">
            -67.01 return
          </CharString>
          <CharString index="232">
            -79.01 return
          </CharString>
          <CharString index="233">
            70.99 return
          </CharString>
          <CharString index="234">
            172 callsubr
            -31 29 -33 38 return
          </CharString>
          <CharString index="235">
            160 callgsubr
            746.01001 118 vstem
            return
          </CharString>
          <CharString index="236">
            -243 -181 -141 -252.99 -154 92 -123 return
          </CharString>
          <CharString index="237">
            227 187 callgsubr
            hvcurveto
            21.01 vlineto
            336 return
          </CharString>
          <CharString index="238">
            66 callsubr
            -36 callsubr
            15 callgsubr
            return
          </CharString>
          <CharString index="239">
            175 133 -121 -170.99 -174.02 return
          </CharString>
          <CharString index="240">
            127 hlineto
            186 callgsubr
            89 rmoveto
            147 callgsubr
            return
          </CharString>
          <CharString index="241">
            -270.01 178 -180.98 266 vhcurveto
            return
          </CharString>
          <CharString index="242">
            119 callgsubr
            650.98999 return
          </CharString>
          <CharString index="243">
            105 -18 callgsubr
            return
          </CharString>
          <CharString index="244">
            121 717.99 return
          </CharString>
          <CharString index="245">
            12 callgsubr
            hstemhm
            return
          </CharString>
          <CharString index="246">
            -104 callgsubr
            hstemhm
            return
          </CharString>
          <CharString index="247">
            -28 callgsubr
            hstem
            return
          </CharString>
          <CharString index="248">
            113.01 return
          </CharString>
          <CharString index="249">
            20.99 return
          </CharString>
          <CharString index="250">
            -114.01 return
          </CharString>
          <CharString index="251">
            247.99 return
          </CharString>
          <CharString index="252">
            -95.99 return
          </CharString>
          <CharString index="253">
            -62.02 return
          </CharString>
          <CharString index="254">
            264.99 return
          </CharString>
          <CharString index="255">
            -171.99 return
          </CharString>
          <CharString index="256">
            -26.01 return
          </CharString>
          <CharString index="257">
            -120.02 return
          </CharString>
          <CharString index="258">
            -52.02 return
          </CharString>
          <CharString index="259">
            -82.99 return
          </CharString>
          <CharString index="260">
            75.01 return
          </CharString>
          <CharString index="261">
            85 callsubr
            hintmask 11011111
            -110 return
          </CharString>
          <CharString index="262">
            0 43 hstem
            -57 callgsubr
            return
          </CharString>
          <CharString index="263">
            110 callsubr
            889 29 callsubr
            return
          </CharString>
          <CharString index="264">
            78 52.99 121 122 vvcurveto
            endchar
          </CharString>
          <CharString index="265">
            7 callgsubr
            hintmask 11101111
            return
          </CharString>
          <CharString index="266">
            hstem
            178.99 121 return
          </CharString>
          <CharString index="267">
            -52 -30 -35 -78 callsubr
            return
          </CharString>
          <CharString index="268">
            200.99 return
          </CharString>
          <CharString index="269">
            955.99 return
          </CharString>
          <CharString index="270">
            -103.02 return
          </CharString>
          <CharString index="271">
            167.99 return
          </CharString>
          <CharString index="272">
            -234.99 return
          </CharString>
          <CharString index="273">
            -222.99 return
          </CharString>
          <CharString index="274">
            91.01 return
          </CharString>
          <CharString index="275">
            -54.99 return
          </CharString>
          <CharString index="276">
            -38 -29 -28 -37 return
          </CharString>
          <CharString index="277">
            169 callsubr
            -36 29 -27 38 hvcurveto
            204 hmoveto
            return
          </CharString>
          <CharString index="278">
            160 callsubr
            -45 30 -35 52 return
          </CharString>
          <CharString index="279">
            37 107 callsubr
            28 -37 169 callsubr
            return
          </CharString>
          <CharString index="280">
            -103 -28 -80 -61 -79.99 vhcurveto
            endchar
          </CharString>
          <CharString index="281">
            89 callgsubr
            37 return
          </CharString>
          <CharString index="282">
            vstem
            658.98 return
          </CharString>
          <CharString index="283">
            rmoveto
            -191.02 return
          </CharString>
          <CharString index="284">
            rmoveto
            -240 25 callsubr
            rlineto
            -76 hlineto
            return
          </CharString>
          <CharString index="285">
            1121.99 432.98 hstem
            return
          </CharString>
          <CharString index="286">
            -998.01 rmoveto
            -23 callsubr
            return
          </CharString>
          <CharString index="287">
            917.99 493.99 hstem
            return
          </CharString>
          <CharString index="288">
            -36 106 callgsubr
            -44.02 return
          </CharString>
          <CharString index="289">
            114 callsubr
            -51 -31 -36 return
          </CharString>
          <CharString index="290">
            55.99 return
          </CharString>
          <CharString index="291">
            110.02 return
          </CharString>
          <CharString index="292">
            26.99 return
          </CharString>
          <CharString index="293">
            335.99 return
          </CharString>
          <CharString index="294">
            693.99 return
          </CharString>
          <CharString index="295">
            205.99 return
          </CharString>
          <CharString index="296">
            145.98 return
          </CharString>
          <CharString index="297">
            72.01 return
          </CharString>
          <CharString index="298">
            97.02 return
          </CharString>
          <CharString index="299">
            556.99 return
          </CharString>
          <CharString index="300">
            -88 callgsubr
            -105 callsubr
            return
          </CharString>
        <CharString name=".notdef">
          263 -555 122 callgsubr
          90.01999 -26 callsubr
          -12 callsubr
          75 callgsubr
          88.98 127.01 -77 callsubr
          161.99 88 callgsubr
          65 151.01001 60 90.98999 62.99 89.02 100 -73.01001 24 callsubr
          -77 callsubr
          24 callsubr
          91.99 -71 callgsubr
          92.02 70 88.98999 100 89.01001 181 hstemhm
          250.98 200 89.01001 -77 callsubr
          41 callgsubr
          269.98 -88.98 -77 callsubr
          88 callgsubr
          207.99 hintmask 111111111011111110110000
          1106.98 2146 rmoveto
          -856 -2701 856 hlineto
          -207.99 2520 rmoveto
          -89 -178 -100 178 41 callgsubr
          -448 -77 callsubr
          102 callgsubr
          100 -175 89 vlineto
          267.02 -348 rmoveto
          -189 178 -92 -448 281 vlineto
          102 callgsubr
          -92.02 rmoveto
          41 callgsubr
          -97 -77 callsubr
          hlineto
          270.01 -165 rmoveto
          41 callgsubr
          -178 -189 -270 89 102 callgsubr
          100 120 callsubr
          -77 callsubr
          vlineto
          hintmask 001011110100000110110000
          448 -162 rmoveto
          -269.98 -448 -65 callgsubr
          358.99 179 vlineto
          88 callgsubr
          -329.99 rmoveto
          -305.01 -448 153 callgsubr
          89 -216 269.98 127 41 callgsubr
          -61.99 -92.02 151 vlineto
          270.01 -467.01 rmoveto
          -304.98 -448 304.98 vlineto
          hintmask 111100000000000101010000
          358.99 41 callgsubr
          rmoveto
          -269.98 -127.02 269.98 hlineto
          88 callgsubr
          -150.98 rmoveto
          -37 callgsubr
          -86 vlineto
          -189 -125.99 rlineto
          275.01 -37 callgsubr
          -448 -12 callsubr
          hlineto
          189 -26 callsubr
          rlineto
          -189 -12 callsubr
          hlineto
          endchar
        </CharString>
        <CharString name=".null">
          -1088 endchar
        </CharString>
        <CharString name="A">
          -90 callsubr
          hstemhm
          -10 callgsubr
          1218 hintmask 11011000
          1120.99 hmoveto
          -102 callsubr
          hintmask 11101000
          -50 callsubr
        </CharString>
        <CharString name="A.smcp">
          -49 callgsubr
          hstem
          23.98 1059 vstem
          960 hmoveto
          -103 callgsubr
        </CharString>
        <CharString name="AE">
          777 0 -104 callgsubr
          287.98999 112 206.01001 -78 callgsubr
          545.01 139 callsubr
          967.47 113 -82.48 111 hintmask 00000000
          hintmask 11110100
          1122 140 callgsubr
          149 callsubr
          606 rlineto
          585.01 -78 callgsubr
          hlineto
          hintmask 11111000
          -589 hlineto
          -23 545.01 rlineto
          693 -104 callgsubr
          -697.02 hlineto
          -81.99 hlineto
          -84 hlineto
          -881.01 50 callsubr
          146 hlineto
          230 389.98 rlineto
          hintmask 11110100
          595.99 hlineto
          16.02 -389.98 rlineto
          85 hlineto
          733 61 callgsubr
          -1363 400 rmoveto
          hintmask 11111000
          489 829.01 35 -829.01 rlineto
          endchar
        </CharString>
        <CharString name="AE.smcp">
          485 0 -78 callgsubr
          223 -104 callgsubr
          128.99998 101 408.01001 -78 callgsubr
          hstemhm
          758.47 118 -107.49 116 hintmask 11111000
          889 -78 callgsubr
          rmoveto
          -8.01 454 rlineto
          526.01 101 -527.02 hlineto
          -7 408 rlineto
          610.02 -78 callgsubr
          -612 hlineto
          -86 hlineto
          -83 hlineto
          -687 51 callgsubr
          167 callgsubr
          hlineto
          186 142 callgsubr
          rlineto
          hintmask 11110100
          433.01 hlineto
          6 144 callgsubr
          rlineto
          91 hlineto
          640 -78 callgsubr
          hlineto
          -1112 325 rmoveto
          hintmask 11111000
          362 630 11 -630 rlineto
          endchar
        </CharString>
        <CharString name="Aacute">
          -90 callsubr
          116 -60 callsubr
          hstemhm
          -10 callgsubr
          1218 hintmask 11011100
          908.98 1850.98 rmoveto
          -145 hlineto
          -45 callsubr
          443 -1571.98 rmoveto
          -102 callsubr
          hintmask 11101100
          -50 callsubr
        </CharString>
        <CharString name="Aacute.smcp">
          -49 callgsubr
          872.00002 -57 callsubr
          23.98 1059 vstem
          822.99 1564 rmoveto
          -145 hlineto
          -45 callsubr
          368.01 -1285 rmoveto
          -103 callgsubr
        </CharString>
        <CharString name="Acircumflex">
          -90 callsubr
          118.01001 -5 callsubr
          hstemhm
          -10 callgsubr
          1218 hintmask 11011100
          641.99 1757 rmoveto
          -48 callgsubr
          9.99 hlineto
          -240 257 rlineto
          -75.99 hlineto
          -238.02 -255 rlineto
          -12 -56 callsubr
          vlineto
          646 -1573.99 rmoveto
          -102 callsubr
          hintmask 11101100
          -50 callsubr
        </CharString>
        <CharString name="Acircumflex.smcp">
          -49 callgsubr
          873.99 60 callsubr
          23.98 1059 vstem
          554.99 1469.99 -35 callsubr
          -56 callsubr
          vlineto
          572.01 -1286.98 rmoveto
          -103 callgsubr
        </CharString>
        <CharString name="Adieresis">
          -90 callsubr
          176 160 hstemhm
          343.98 112 callgsubr
          hintmask 11011110
          425.98 1631.99 rmoveto
          45 callgsubr
          160 callsubr
          106 callgsubr
          30 -35 52 114 callsubr
          52 25 callgsubr
          34 111 callgsubr
          10 callgsubr
          36 -52 -51 10 callgsubr
          -36 -78 callsubr
          -45 25 callgsubr
          -34 51 hvcurveto
          258 -1631.99 rmoveto
          -102 callsubr
          hintmask 11101110
          -50 callsubr
        </CharString>
        <CharString name="Adieresis.smcp">
          -49 callgsubr
          931.99 160 hstem
          25 callsubr
          112 callgsubr
          vstem
          338.98 1344.98 rmoveto
          -21 callgsubr
          -52 -30 -35 -45 -45.02 30 -69 callgsubr
          184.02 -1344.98 rmoveto
          -103 callgsubr
        </CharString>
        <CharString name="Agrave">
          -90 callsubr
          116 -60 callsubr
          hstemhm
          -10 callgsubr
          1218 hintmask 11011100
          713.99 1571.98 -67 callgsubr
          516 -1571.98 rmoveto
          -102 callsubr
          hintmask 11101100
          -50 callsubr
        </CharString>
        <CharString name="Agrave.smcp">
          -49 callgsubr
          872.00002 -57 callsubr
          23.98 1059 vstem
          627 1285 rmoveto
          -191 279 rlineto
          -145.02 hlineto
          227 -279 rlineto
          442.02 -1285 rmoveto
          -103 callgsubr
        </CharString>
        <CharString name="Aring">
          -90 callsubr
          72.01001 72 233.98999 72 hstemhm
          450.99 76 233 77 hintmask 11011111
          643.99 1527.99 rmoveto
          33 callgsubr
          -109 -84 36 callsubr
          72 callgsubr
          -28 callsubr
          84 -80 109 hvcurveto
          305.99 vmoveto
          -5 callgsubr
          -67.99 -49 51 64 -65 callsubr
          49 52 76 callgsubr
          hvcurveto
          477 -1833.98 rmoveto
          -102 callsubr
          hintmask 11101111
          -50 callsubr
        </CharString>
        <CharString name="Aring.smcp">
          -49 callgsubr
          828.99 72 234 72 hstem
          363.99 76 233 77 vstem
          192 callsubr
          1241.99 rmoveto
          108 149 callgsubr
          80 -2 callsubr
          -2 callsubr
          42 callgsubr
          13 callsubr
          -108 -108.99 36 callsubr
          -83.99 -28 callsubr
          -28 callsubr
          -22 callgsubr
          -80 11 callgsubr
          hvcurveto
          306 vmoveto
          -5 callgsubr
          -68.01 38 callsubr
          51 64 -65 callsubr
          -38 callsubr
          52 68.01 hvcurveto
          403.01 -1547.98 rmoveto
          -103 callgsubr
        </CharString>
        <CharString name="Atilde">
          -90 callsubr
          142.01001 -6 callsubr
          310.98 89 494.01001 -88 callgsubr
          hintmask 00000000
          hintmask 11010111
          511 1707.99 rmoveto
          55 callsubr
          hintmask 11011011
          109 87 13 callsubr
          129 hvcurveto
          -59 callgsubr
          6 rlineto
          -74 -49 -48 131 callsubr
          110 -126 hhcurveto
          hintmask 11010111
          -110.02 -85 45 callsubr
          hintmask 11011011
          610 -1707.99 rmoveto
          -102 callsubr
          hintmask 11101011
          -50 callsubr
        </CharString>
        <CharString name="Atilde.smcp">
          -49 callgsubr
          897.99 -34 callsubr
          223.99 89 494 -88 callgsubr
          hintmask 00000000
          hintmask 11011100
          424 1420.98 rmoveto
          55 callsubr
          hintmask 11101100
          22 callsubr
          -8 callgsubr
          -36 callsubr
          -42.99 110 120 callgsubr
          hhcurveto
          hintmask 11011100
          -110 -85 42 callgsubr
          -127 hvcurveto
          88 callgsubr
          -3.99 rlineto
          90 callgsubr
          171 callgsubr
          hintmask 11101100
          536 -1420.98 rmoveto
          -103 callgsubr
        </CharString>
        <CharString name="B">
          167 0 104 596.98 -88 callsubr
          547.01 105 hstemhm
          -31 callgsubr
          657.98999 124 -71 124 hintmask 11110100
          860 759.99 rmoveto
          hintmask 11111000
          145 48 85 -97 callsubr
          149 vvcurveto
          263.99 -180 116 -295 vhcurveto
          -430 -79 callsubr
          52 hlineto
          440 hlineto
          hintmask 11110100
          278 188 145 147 callsubr
          169 -111 143.99 148 callsubr
          37 hvcurveto
          -245 590.99 rmoveto
          hintmask 11111000
          233 -11 callsubr
          -87 -186 -180 43 callsubr
          -94 -215 hvcurveto
          -319 547 hlineto
          hintmask 11110100
          368.99 -1246.99 rmoveto
          -368.99 596.99 378 hlineto
          227 71 callsubr
          -128 -165 -188.99 -128 -115 -214 hvcurveto
          endchar
        </CharString>
        <CharString name="B.smcp">
          -4 0 -104 callgsubr
          449 -71 callgsubr
          414.01 -88 callsubr
          57 callsubr
          550.01 -105 callsubr
          -75.00002 119 hintmask 11110100
          750.98 605.98 rmoveto
          hintmask 11111000
          124 39.02 69 93.98 117 vvcurveto
          212 -160.99 -71 callgsubr
          -259.01 vhcurveto
          -370 -73 callsubr
          50 hlineto
          379 hlineto
          hintmask 11110100
          244 161.02 108 callgsubr
          215 130 -37 callgsubr
          118.01 -147 29.98 hvcurveto
          -227 456.01 rmoveto
          hintmask 11111000
          196 104 -67.02 -140.98 -137.02 -103 -69 -182 hvcurveto
          -265.01 414 hlineto
          hintmask 11110100
          309 -960 rmoveto
          -309 449 317.01 hlineto
          189.99 88 -98 120 callgsubr
          -140.99 -106 -84 -180 hvcurveto
          endchar
        </CharString>
        <CharString name="C">
          242 -20 104 1286.99 105 hstem
          167 callgsubr
          123 837 123 vstem
          1215 453.98 rmoveto
          94 callgsubr
          -62 callsubr
          -393.99 216 -263 332 320 185 102 callgsubr
          296 30 vhcurveto
          endchar
        </CharString>
        <CharString name="C.smcp">
          57 -70 callgsubr
          993.98 -32 callgsubr
          4 callsubr
          vstem
          1048.99 366.98 rmoveto
          -67 callsubr
          hlineto
          -187.99 -25 -106 -94 -214 hhcurveto
          -62 callgsubr
          -319 187 -210.98 289 278 161.02 144.97 238 -2 callgsubr
          vhcurveto
          endchar
        </CharString>
        <CharString name="C.ss06">
          285 -76 callsubr
          103.97 1289.01001 105 hstem
          128 -56 callgsubr
          vstem
          1271.99 453.98 rmoveto
          -123 hlineto
          -238 -36 -126 -133 -252 hhcurveto
          -285 -198 260.02 355 hvcurveto
          27 callgsubr
          vlineto
          354 189 259.01 290 250 133 -143.02 -228 35 vhcurveto
          101 callgsubr
          hlineto
          293 -36 -195 183 -310.99 hhcurveto
          -360 -243 -302 -418.02 hvcurveto
          -58.99 vlineto
          -417.01 250.98 -301.98 356 316 187 185.98 289 34 vhcurveto
          endchar
        </CharString>
        <CharString name="Ccedilla">
          242 -445 77 350 -104 callgsubr
          1287 105 hstem
          167 callgsubr
          123 528 100 209 123 vstem
          680 13 callsubr
          rmoveto
          -62 callsubr
          -375.99 197 -256 305 -23 vhcurveto
          149 callsubr
          -60 callgsubr
          rlineto
          118.01 17 callsubr
          -83 callsubr
          -83.01 41 -82 11 hvcurveto
          10 183 callsubr
          291 17 164 callgsubr
          176 29 279.98 rlinecurve
          94 callgsubr
          endchar
        </CharString>
        <CharString name="Ccedilla.smcp">
          57 -440.99 77 349 145 callgsubr
          -98.98999 99 993.98 -98 callsubr
          hstemhm
          4 callsubr
          458.99998 100 hintmask 10111100
          584.99 -53 callgsubr
          rmoveto
          -62 callgsubr
          -302 168 -205 262 -76 callsubr
          vhcurveto
          149 callsubr
          -120 rlineto
          118 -11 57 -21 -77 vvcurveto
          42 callgsubr
          -66 callsubr
          -35.99 -99 vhcurveto
          7 -77 rlineto
          188 callgsubr
          107 80 -83 callsubr
          hvcurveto
          hintmask 11011100
          -97 callsubr
          -83 41 -82 11 vhcurveto
          10.02 56 144 callsubr
          15.97 144 142 24 223.99 rlinecurve
          -67 callsubr
          hlineto
          hintmask 10111100
          -187.99 -25 -106 -94 -214 hhcurveto
          endchar
        </CharString>
        <CharString name="D">
          254 0 104 1246.98 136 callsubr
          783 29 callsubr
          591.99 7 callsubr
          -284 hlineto
          -123 -79 callsubr
          -40 callgsubr
          1246.99 118 callgsubr
        </CharString>
        <CharString name="D.smcp">
          64 0 -104 callgsubr
          960 -6 callgsubr
          652.99998 119 vstem
          507.99 58 callsubr
          -234 hlineto
          -120 -73 callsubr
          -31 callsubr
          960 118 callsubr
        </CharString>
        <CharString name="D.ss06">
          313 0 104 1246.98 105 hstem
          73 callgsubr
          124 833 121 callgsubr
          vstem
          596.99 7 callsubr
          -284 hlineto
          -124.01 -79 callsubr
          68 hlineto
          332 hlineto
          393.02 288.99 279 424 hvcurveto
          39 callsubr
          vlineto
          424 -291 279 -383 vhcurveto
          549 -752.99 rmoveto
          -355 -226.02 -244 -332 vhcurveto
          -274.98 1246.99 284 hlineto
          321 228 165 callsubr
          -360 hvcurveto
          endchar
        </CharString>
        <CharString name="E">
          77 0 -61 callsubr
          hstem
          184.99 123 vstem
          308 104 -91 callgsubr
        </CharString>
        <CharString name="E.smcp">
          -75 callgsubr
          hstem
          -54 callsubr
          -92 callgsubr
          273.98 101.99 -96 callsubr
        </CharString>
        <CharString name="Eacute">
          77 0 -61 callsubr
          121 279.02 -18 callgsubr
          vstem
          885.99 1856 rmoveto
          -145 hlineto
          -191 24 callgsubr
          105 hlineto
          -347 -1472.99 -91 callgsubr
        </CharString>
        <CharString name="Eacute.smcp">
          -75 callgsubr
          -99 callsubr
          -57 callsubr
          -57 callgsubr
          vstem
          800.99 1564 rmoveto
          -145 hlineto
          -45 callsubr
          -296.02 -1183 -96 callsubr
        </CharString>
        <CharString name="Ecircumflex">
          77 0 -61 callsubr
          123 266.99 -18 callgsubr
          vstem
          617.98 1762 rmoveto
          -48 callgsubr
          10 hlineto
          -239.99 55 callgsubr
          108 vlineto
          -143 -1474.99 -91 callgsubr
        </CharString>
        <CharString name="Ecircumflex.smcp">
          -75 callgsubr
          121.99998 60 callsubr
          -57 callgsubr
          vstem
          534 1469.99 -35 callsubr
          -83 callgsubr
          vlineto
          -93 -1184.99 -96 callsubr
        </CharString>
        <CharString name="Edieresis">
          77 0 -61 callsubr
          181 160 hstemhm
          -31 callgsubr
          12.98999 112 callgsubr
          hintmask 00000000
          hintmask 11110110
          402.98 1636.99 rmoveto
          51 32 35 111 callgsubr
          -32 35 -51 -52 -30 -35 -45.02 -45 30 -69 callgsubr
          hintmask 11101000
          -531.99 -1532.99 -91 callgsubr
        </CharString>
        <CharString name="Edieresis.smcp">
          -75 callgsubr
          179.99998 160 57 callsubr
          -64 callsubr
          165 272 -43 callgsubr
          hintmask 00000000
          hintmask 11110110
          317.99 1344.98 rmoveto
          -21 callgsubr
          116 callgsubr
          -10 callgsubr
          34 -87 callsubr
          45 -54 callgsubr
          36 -52 -51 10 callgsubr
          -36 -45 -78 callsubr
          25 callgsubr
          -34 51 hvcurveto
          hintmask 11101000
          -481.02 -1242.99 -96 callsubr
        </CharString>
        <CharString name="Egrave">
          77 0 -61 callsubr
          121 279.02 -18 callgsubr
          vstem
          691 1576.98 rmoveto
          -191 177 callgsubr
          -145.02 hlineto
          227 24 callgsubr
          -273.98 -1472.99 -91 callgsubr
        </CharString>
        <CharString name="Egrave.smcp">
          -75 callgsubr
          -99 callsubr
          -57 callsubr
          -57 callgsubr
          vstem
          605.98 1285 -67 callgsubr
          -223 -1183 -96 callsubr
        </CharString>
        <CharString name="Eth">
          254 0 104 585.99 -104 callgsubr
          558.99998 136 callsubr
          783 29 callsubr
          591.99 7 callsubr
          -284 hlineto
          -123 -664 -151 -66 callsubr
          151 -689.99 -40 callgsubr
          586 337 -104 callgsubr
          -337 559 118 callgsubr
        </CharString>
        <CharString name="Eth.smcp">
          64 0 -104 callgsubr
          438 -104 callgsubr
          420.01 -6 callgsubr
          652.99998 119 vstem
          507.99 58 callsubr
          -234 hlineto
          -120 -523 -198.98 -66 callsubr
          198.98 -540 -31 callsubr
          438 292 -104 callgsubr
          -292 420 118 callsubr
        </CharString>
        <CharString name="Euro">
          48 -76 callsubr
          103.97 480.01001 -77 callsubr
          164.99998 89 466.01001 104 hstem
          274.98 124 vstem
          812.99 82.98 rmoveto
          -252 -162 156 308 hvcurveto
          16.02 419 -77 callsubr
          -419 165 419 89 -419 4 vlineto
          312 14 callgsubr
          -37 callsubr
          253 77 74 callgsubr
          -14.01 -76 callsubr
          66 vhcurveto
          10 -83 callgsubr
          rlineto
          19 -3 callsubr
          -72 12 -81 hhcurveto
          -316.99 -219.02 -192 -376.01 hvcurveto
          -1.99 -191 -89 191 -165 -191 41 callgsubr
          191 -16.02 vlineto
          -375.99 221 -191.98 316.01 80 37 callsubr
          11 19.98 126 callsubr
          vhcurveto
          -10 -13 callsubr
          rlineto
          -22 -47 callgsubr
          -75 -12 -77 hhcurveto
          endchar
        </CharString>
        <CharString name="Euro.smcp">
          -129 -19 -104 callgsubr
          341 87 133 87 347.98999 -32 callgsubr
          220.99 -92 callgsubr
          672.99 82.98 rmoveto
          -204 -106 78 callgsubr
          216 -19 hvcurveto
          430 87 -432.99 133 432.99 87 -430.99 hlineto
          223 17 104 121 callgsubr
          207 hhcurveto
          37 callsubr
          64.99 -10 -21.01 104 callsubr
          hvcurveto
          11 -98 callsubr
          rlineto
          19 -48 callsubr
          146 callsubr
          12 -81 hhcurveto
          -269 -157 -165 -285 -22 hvcurveto
          -169 -87 167 -133 -167 -87 170 hlineto
          -282.01 24 158 -160.99 267 hhcurveto
          80 69 11 19.99 71 hvcurveto
          -14 -98 callsubr
          rlineto
          -20.01 -68 -60 -11 -3 callsubr
          hhcurveto
          endchar
        </CharString>
        <CharString name="F">
          64 0 43 636.99 41 callsubr
          565.01 136 callsubr
          vstem
          1087 1350.98 rmoveto
          105 -779 54 callgsubr
          123 680 677.99 71 callsubr
          -677.99 565 hlineto
          endchar
        </CharString>
        <CharString name="F.smcp">
          -100 0 43 489.99 -88 callsubr
          426.01 -6 callgsubr
          vstem
          933.99 1061.99 rmoveto
          -88 callsubr
          -660.01 vlineto
          85 callgsubr
          532.99 576 103 -576 426 hlineto
          endchar
        </CharString>
        <CharString name="G">
          313 -20 104 502.99 105 679 105 hstem
          144.99 -56 callgsubr
          843.99998 29 callsubr
          1234.98 174 rmoveto
          518 -513 -105 391 -376.02 vlineto
          -51 -42 -67 callsubr
          -76 -222 hhcurveto
          -278 -183 222 339 hvcurveto
          179 vlineto
          328.01 157 218.99 284 263 123 callgsubr
          -151 -174 29 vhcurveto
          122.99 hlineto
          245 -74 callsubr
          -168 185 -324.01 hhcurveto
          -349 -215.99 -254 -400 hvcurveto
          -176.99 vlineto
          -407 240.99 -258 343 306.01 28 callsubr
          120.99 24 callsubr
          51 vhcurveto
          endchar
        </CharString>
        <CharString name="G.smcp">
          114 -70 callgsubr
          378.99 98 516.98999 -32 callgsubr
          121 -97 callsubr
          707 5 callsubr
          38 callgsubr
          139 rmoveto
          423 -448 -98 329.02 -284 vlineto
          -38 -35 -99 -57 -184 hhcurveto
          -235.99 -153 169 267 hvcurveto
          133 vlineto
          257 134 168 236.99 220.02 92 -113.99 -135 23 vhcurveto
          -97 callsubr
          hlineto
          161 callsubr
          -27 -145 -37 callsubr
          -282.99 hhcurveto
          -300.01 -188.99 -204 -325.02 hvcurveto
          -130.99 vlineto
          -331 208 -205.98 298 263 79 callsubr
          95.98 59 45 vhcurveto
          endchar
        </CharString>
        <CharString name="G.ss06">
          354 -76 callsubr
          103.97 504.01001 104 681 104 hstem
          128 -56 callgsubr
          905 123 vstem
          1280 172.99 rmoveto
          518 -514.01 -104 391 -376.02 vlineto
          -51 -40 -129 -77 -211 hhcurveto
          -310.01 -215 265.02 368.99 hvcurveto
          35 vlineto
          357.01 192 263 286 282.01 111.99 -152 -174 25 callgsubr
          vhcurveto
          123 hlineto
          245 -33 -174.02 185 -341 hhcurveto
          -351 -250.98 -296 -430 hvcurveto
          107 callgsubr
          vlineto
          -436 273.98 -301.98 375.01 293 14 callgsubr
          121.98 72 40 callgsubr
          vhcurveto
          endchar
        </CharString>
        <CharString name="H">
          361 0 43 654.99 -55 callgsubr
          612.04999 40.96 -18 callgsubr
          832 -55 callsubr
          vstem
          1140 7 callsubr
          -653 -832 653 -123 -79 callsubr
          123 698 832 -698 122.99 -69 callsubr
          vlineto
          endchar
        </CharString>
        <CharString name="H.smcp">
          157 0 43 481.98 -32 callgsubr
          -57 callgsubr
          696.01 -92 callgsubr
          969.99 58 callsubr
          -537.99 -696.01 537.99 85 callgsubr
          524.98 696.01 -524.98 120 -64 callgsubr
          vlineto
          endchar
        </CharString>
        <CharString name="I">
          20 callsubr
          137 callgsubr
          334.99 hmoveto
          -69 callsubr
          -123 -79 callsubr
          vlineto
          endchar
        </CharString>
        <CharString name="I.smcp">
          -614 0 43 84 callsubr
          296.98 hmoveto
          -64 callgsubr
          -120 -73 callsubr
          vlineto
          endchar
        </CharString>
        <CharString name="Iacute">
          20 callsubr
          121 279.02 137 callgsubr
          395 1856 176 callsubr
          24 callgsubr
          105 hlineto
          231.02 177 callgsubr
          -205 -1856 rmoveto
          -69 callsubr
          -123 -79 callsubr
          vlineto
          endchar
        </CharString>
        <CharString name="Iacute.smcp">
          63 callgsubr
          358.99 1564 rmoveto
          -45 callsubr
          231 279 rlineto
          -207 -1564 rmoveto
          -64 callgsubr
          -120 -73 callsubr
          vlineto
          endchar
        </CharString>
        <CharString name="Icircumflex">
          20 callsubr
          123 266.99 137 callgsubr
          552 1588.98 rmoveto
          -240 257 -35 callgsubr
          -217 -1578.99 rmoveto
          -69 callsubr
          -123 -79 callsubr
          vlineto
          endchar
        </CharString>
        <CharString name="Icircumflex.smcp">
          -614 0 43 1243.98 266.99 84 callsubr
          515.99 1297 177 callsubr
          -237.98 -255 rlineto
          -12 107.97 157 callgsubr
          -219 -1286.98 rmoveto
          -64 callgsubr
          -120 -73 callsubr
          vlineto
          endchar
        </CharString>
        <CharString name="Idieresis">
          20 callsubr
          181 160 hstem
          -25 -43 callgsubr
          72 123 77 -43 callgsubr
          vstem
          57 1797 -68 callsubr
          -159 -1797 rmoveto
          -69 callsubr
          -123 -79 callsubr
          vlineto
          endchar
        </CharString>
        <CharString name="Idieresis.smcp">
          -614 0 43 1301.98 160 hstem
          -61 165 72.99 -105 callsubr
          37 callsubr
          165 vstem
          142 callsubr
          -40 callsubr
          -161 -1504.99 rmoveto
          -64 callgsubr
          -120 -73 callsubr
          vlineto
          endchar
        </CharString>
        <CharString name="Igrave">
          20 callsubr
          121 279.02 137 callgsubr
          344.99 1576.98 -30 callgsubr
          99 -1576.98 rmoveto
          -69 callsubr
          -123 -79 callsubr
          vlineto
          endchar
        </CharString>
        <CharString name="Igrave.smcp">
          63 callgsubr
          308.98 1285 rmoveto
          -191 115 callgsubr
          97 -1285 rmoveto
          -64 callgsubr
          -120 -73 callsubr
          vlineto
          endchar
        </CharString>
        <CharString name="J">
          40 49 callsubr
          hstem
          27 callsubr
          123 632.98999 123 vstem
          827.99 7 callsubr
          -1021.99 vlineto
          -230 -140 -120 -176.99 -199 -117 108.02 209.98 vhcurveto
          -123 hlineto
          -285.98 177 -136 262 13 callgsubr
          187 14 callgsubr
          294.01 vhcurveto
          1021.99 vlineto
          endchar
        </CharString>
        <CharString name="J.smcp">
          -117 -70 callgsubr
          hstem
          58.98 -99 callsubr
          524.00002 121 vstem
          703 58 callsubr
          -827.99 vlineto
          -157 -106 -95 -144 -171 163 callgsubr
          80 161 vhcurveto
          150 callsubr
          hlineto
          -232 164 -109.97 230 214 157 132.97 220.02 vhcurveto
          827.99 vlineto
          endchar
        </CharString>
        <CharString name="K">
          204 -8 callsubr
          184.99 123 vstem
          1105.98 hmoveto
          -37 callsubr
          hlineto
          -658 808.98 610 647 rlineto
          -155 hlineto
          -547 -577 -198 -205.99 rlineto
          782.99 -123 -79 callsubr
          123 521.99 vlineto
          204.99 161 callsubr
          rlineto
          endchar
        </CharString>
        <CharString name="K.alt">
          220 0 43 640.99 105 626.02998 -70 callsubr
          73 callgsubr
          124 vstem
          1114.99 hmoveto
          153 hlineto
          -642 740.99 599 715 rlineto
          -155 hlineto
          -564 -666.99 rlineto
          -193 189 callgsubr
          -124.01 -79 callsubr
          101 callgsubr
          683.99 72 callsubr
          hlineto
          endchar
        </CharString>
        <CharString name="K.alt2">
          233 -8 callsubr
          73 callgsubr
          124 vstem
          1210.98 hmoveto
          -758.99 739.98 716 716 rlineto
          -161 hlineto
          -682.99 -677.99 rlineto
          -11 677.99 -124.01 -79 callsubr
          101 callgsubr
          709.98 hlineto
          739 -709.98 rlineto
          endchar
        </CharString>
        <CharString name="K.smcp">
          24 155 callsubr
          vstem
          936.98 hmoveto
          149 hlineto
          -555.01 645.98 513 519 rlineto
          -152 hlineto
          -453 -445.99 -165 -167 rlineto
          612.99 85 callgsubr
          406 vlineto
          171 121 callsubr
          rlineto
          endchar
        </CharString>
        <CharString name="L">
          -8 0 104 1311.01999 -70 callsubr
          184.99 -56 callgsubr
          vstem
          308.98 104 rmoveto
          1351.99 43 callsubr
          -79 callsubr
          87 vlineto
          755 104 hlineto
          endchar
        </CharString>
        <CharString name="L.smcp">
          -158 0 6 callgsubr
          -57 callgsubr
          vstem
          273.98 140 callgsubr
          1062.99 -120 -73 callsubr
          82 vlineto
          650 61 callgsubr
          endchar
        </CharString>
        <CharString name="M">
          684 0 43 -43 37 callgsubr
          1112 37 callgsubr
          -40.96002 60 callgsubr
          -31 callgsubr
          1156 123 hintmask 10011100
          1587 7 callsubr
          -164 hlineto
          hintmask 01011100
          -538.01 -1283.99 -537.99 1283.99 rlineto
          -53 hlineto
          -109 -79 callsubr
          123 636.99 hlineto
          hintmask 10101100
          -11.02 643.02 540.02 -1280 rlineto
          14 callsubr
          hlineto
          543.01 1283.99 -11 -647 rlineto
          -636.99 123 vlineto
          endchar
        </CharString>
        <CharString name="M.smcp">
          437 0 43 -43 39 callgsubr
          57 callsubr
          976.98999 119 hintmask 10110000
          1369.99 58 callsubr
          -159 hlineto
          hintmask 01110000
          -448.99 -998.99 -450 998.99 rlineto
          -53 hlineto
          -105 -73 callsubr
          120 477 hlineto
          -11 536.99 454 -1013.99 rlineto
          88 callgsubr
          hlineto
          456 1018 -11.02 -541 rlineto
          -477 -83 callsubr
          vlineto
          endchar
        </CharString>
        <CharString name="N">
          367 -8 callsubr
          184.99 -56 callgsubr
          837.01 -55 callsubr
          vstem
          1268.98 hmoveto
          -32 callsubr
        </CharString>
        <CharString name="N.smcp">
          161 155 callsubr
          701.01 5 callsubr
          1093.98 hmoveto
          -16 callgsubr
        </CharString>
        <CharString name="Ntilde">
          367 3 callsubr
          142.01001 -6 callsubr
          184.99 -56 callgsubr
          86.01 -77 callsubr
          493.99998 90 78.01001 -55 callsubr
          hintmask 11101111
          1067.99 1810.98 -15 callgsubr
          57 callgsubr
          49 45 75 callgsubr
          vhcurveto
          114.02 158 callsubr
          109 87 13 callsubr
          129 hvcurveto
          161 callsubr
          -1810.98 rmoveto
          -32 callsubr
        </CharString>
        <CharString name="Ntilde.smcp">
          161 0 43 1267.98 -34 callsubr
          -54 callsubr
          119.99 18.99998 89 494.01001 -88 callgsubr
          77 callsubr
          -97 callsubr
          hintmask 00000000
          hintmask 11011100
          965.98 1524 rmoveto
          -8 callgsubr
          -109 -43 110 -126 hhcurveto
          hintmask 10111100
          0 callgsubr
          hintmask 11011100
          22 callsubr
          hintmask 11010010
          128 -1524 rmoveto
          -16 callgsubr
        </CharString>
        <CharString name="O">
          47 callgsubr
          1259.99 649.99 -107 callsubr
        </CharString>
        <CharString name="O.smcp">
          30 callgsubr
          1088 524.98 -106 callgsubr
        </CharString>
        <CharString name="O.ss06">
          373 1 callgsubr
          39 callsubr
          vlineto
          421.01 -257 303 -346.01 -339.99 -261 -303 -421.01 vhcurveto
          -49.99 81 callsubr
          345.99 255.02 301.98 422.01 vhcurveto
          -123 52 rmoveto
          -52 vlineto
          -359.02 -194 -256.98 -284 -275 -205 25 callsubr
          359.02 vhcurveto
          52 vlineto
          356 203 257.99 275 283.01 197 -257.99 -356 vhcurveto
          endchar
        </CharString>
        <CharString name="OE">
          825 -76 callsubr
          -104 callgsubr
          -81 -61 callsubr
          -81 101 hstemhm
          -83 callgsubr
          -105 callsubr
          668.01999 -55 callsubr
          hintmask 01110110
          1018.98 104 rmoveto
          594 680 -55 callgsubr
          -680 548 777.01 105 -777.01 vlineto
          -62 hlineto
          hintmask 10101110
          11 -95 36 callgsubr
          77 callsubr
          -110 hhcurveto
          -318.01 -23 callsubr
          -243 -353.02 hvcurveto
          -303.98 vlineto
          -353.02 220 -243.98 318 vhcurveto
          hintmask 01110110
          184 callsubr
          71 callsubr
          11 9.99 95 hvcurveto
          25.01 hlineto
          819 104 hlineto
          hintmask 10101110
          -1573.01 472 rmoveto
          305.99 vlineto
          307 162 186 254 89 85 -5 -1 callgsubr
          78.01 vhcurveto
          -1266.01 vlineto
          -1 callgsubr
          -77 -88 -5 42 callgsubr
          hhcurveto
          -254 -164 191 304.01 hvcurveto
          endchar
        </CharString>
        <CharString name="Oacute">
          -82 callgsubr
          -83 callgsubr
          278.99 156 callsubr
          812.99 1862.98 rmoveto
          -45 callsubr
          231 279 rlineto
          302 -1212.99 -107 callsubr
        </CharString>
        <CharString name="Oacute.smcp">
          -87 callgsubr
          104.00002 278.99 128 callsubr
          716.98 1564 rmoveto
          -45 callsubr
          231 279 rlineto
          226.02 -1039.02 -106 callgsubr
        </CharString>
        <CharString name="Ocircumflex">
          -82 callgsubr
          110.00002 266.99 156 callsubr
          969.99 1595.99 rmoveto
          -240 55 callgsubr
          108 vlineto
          164 callgsubr
          -26 callgsubr
          169 166 callgsubr
          rlineto
          110 hlineto
          290 -936 -107 callsubr
        </CharString>
        <CharString name="Ocircumflex.smcp">
          -87 callgsubr
          71 callsubr
          266.99 128 callsubr
          872.98 1297 rmoveto
          63 callsubr
          167 183 -48 callgsubr
          hlineto
          215.02 -762 -106 callgsubr
        </CharString>
        <CharString name="Odieresis">
          -82 callgsubr
          168.00002 14 callgsubr
          110 callsubr
          144 165 272 -43 callgsubr
          143.01 29 callsubr
          474.99 1803.98 rmoveto
          -52 -30 -35 -45 -45 30 -35 52 51 32 35 45 45 -32 35 -51 114 callsubr
          -51 -31 -35.99 -78 callsubr
          -45 31 -34 51 52 -10 callgsubr
          34 111 callgsubr
          -54 callgsubr
          89 callgsubr
          -52 hvcurveto
          348 -1153.99 -107 callsubr
        </CharString>
        <CharString name="Odieresis.smcp">
          -87 callgsubr
          163.99 160 160 callgsubr
          72.01001 -43 callgsubr
          272.01 -43 callgsubr
          190 callsubr
          118 vstem
          378 1504.99 rmoveto
          151 callsubr
          107 callsubr
          48 callsubr
          89 callsubr
          -35 52.02 51 31.99 49 callgsubr
          -74 callsubr
          35 -51 hvcurveto
          436.99 hmoveto
          -51 -54 callgsubr
          -36 -45 -78 callsubr
          -10 callgsubr
          -34 51 52 25 callgsubr
          34 -87 callsubr
          45 10 callgsubr
          36 -52 hvcurveto
          273.02 -980.01 -106 callgsubr
        </CharString>
        <CharString name="Ograve">
          -82 callgsubr
          -83 callgsubr
          278.99 156 callsubr
          762.98 1583.98 -67 callgsubr
          606 -933.99 -107 callsubr
        </CharString>
        <CharString name="Ograve.smcp">
          -87 callgsubr
          104.00002 278.99 128 callsubr
          189 callgsubr
          1285 -67 callgsubr
          530 -760.02 -106 callgsubr
        </CharString>
        <CharString name="Oslash">
          47 callgsubr
          1274.98 1504.99 rmoveto
          -104 hlineto
          -106 -169 rlineto
          -88 callgsubr
          145 callsubr
          -127 50 -150 hhcurveto
          -339 -227 -263 -407 hvcurveto
          -156 vlineto
          -221 -65 callsubr
          -178 122 callsubr
          -117 vhcurveto
          -137 -23 callsubr
          rlineto
          104 hlineto
          101.01 75 callsubr
          rlineto
          -63 88 108 -33.99 122 hhcurveto
          345 221 262 408 hvcurveto
          156 vlineto
          73 callgsubr
          -48 159 -86 115 vhcurveto
          -877 -618.99 rmoveto
          158 vlineto
          344 168 215.98 275 79 callsubr
          105 -46 -83.99 75 vhcurveto
          -630.99 -1003.01 rlineto
          125 callsubr
          97 106 callsubr
          142 176 vvcurveto
          889 158 rmoveto
          -158 vlineto
          -346.01 -161 -216 -283.01 -12 callgsubr
          -88 29 55 -69 vhcurveto
          622 989 rlineto
          52 -92 28 9 callsubr
          -140.99 vvcurveto
          endchar
        </CharString>
        <CharString name="Oslash.smcp">
          30 callgsubr
          960 1027.99 rmoveto
          122 -26 callgsubr
          rlineto
          163 callsubr
          hlineto
          -82.98 43 callsubr
          rlineto
          27 callgsubr
          -79.02 -103 33 -118 hhcurveto
          -295 -196 -211 -331 hvcurveto
          -114.02 vlineto
          148 callsubr
          54 -139 92 -94 vhcurveto
          43 callsubr
          -186 rlineto
          103 hlineto
          87 79 callsubr
          rlineto
          -53 77 14 callsubr
          -27.97 -56 callsubr
          hhcurveto
          298 193 209.98 331 hvcurveto
          114.02 vlineto
          162 -46.02 133 -81.98 94 vhcurveto
          -736.02 -503.01 rmoveto
          116 vlineto
          269 140 167 232 98 80 -29 -52 62 vhcurveto
          -521.01 -780.99 rlineto
          -58.98 74 callsubr
          -32.02 105 129 vvcurveto
          746 hmoveto
          -269.98 -136 -168 -237 -86 -75 23.99 44 -59 vhcurveto
          517 775 rlineto
          -38 callsubr
          105 callgsubr
          27.01 -98 -117 vvcurveto
          endchar
        </CharString>
        <CharString name="Otilde">
          -82 callgsubr
          133.00002 -71 callgsubr
          12.99998 -71 callgsubr
          hstemhm
          -26 callsubr
          123 111 -77 callsubr
          493.99998 90 105.01001 122 hintmask 11101111
          1032.99 1821.98 -15 callgsubr
          -3.99 rlineto
          90 callgsubr
          49 45 75 callgsubr
          vhcurveto
          114.02 158 callsubr
          109 87 84 128.99 hvcurveto
          227 -1171.99 -107 callsubr
        </CharString>
        <CharString name="Otilde.smcp">
          -87 callgsubr
          28 callgsubr
          -34 callsubr
          -55 callgsubr
          119 40 89 494.01001 -88 callgsubr
          33.01 118 hintmask 00000000
          hintmask 11101111
          936.98 1524 rmoveto
          -8 callgsubr
          -109 -43 110 -126 hhcurveto
          hintmask 11011111
          0 callgsubr
          hintmask 11101111
          22 callsubr
          hintmask 11101001
          151.02 -999.02 -106 callgsubr
        </CharString>
        <CharString name="P">
          173 0 43 549.99 105 652.98999 136 callsubr
          739.98999 123 vstem
          680.98 7 callsubr
          -495.99 -79 callsubr
          123 593 372.99 hlineto
          320 170 14 callgsubr
          269 257 -170 78 callsubr
          -320 hvcurveto
          -757.99 vmoveto
          -372.99 652.99 372.99 hlineto
          259.01 -83 callgsubr
          -152.99 -178 -182 36 callgsubr
          -139.99 -259.01 hvcurveto
          endchar
        </CharString>
        <CharString name="P.smcp">
          1 0 43 419.99 -88 callsubr
          496.01 -6 callgsubr
          617.99998 -99 callsubr
          vstem
          585.99 58 callsubr
          -432 -73 callsubr
          120 462.99 312.01 hlineto
          277 149 79 callsubr
          216 209 -150.02 146 -275.99 hvcurveto
          -599 vmoveto
          -312.01 496 312.01 hlineto
          216 -88 callgsubr
          -117 -136 -138 -59 callgsubr
          -105 -216 hvcurveto
          endchar
        </CharString>
        <CharString name="Q">
          -82 callgsubr
          hstem
          121 -56 callgsubr
          888 123 vstem
          1256 649.99 rmoveto
          156 vlineto
          407 -223 263 -345.01 -339.99 -227 -263 -407 vhcurveto
          -156 vlineto
          -408 228.99 -262 340.01 60 56 8 14.99 52 vhcurveto
          296 -257.98 149 callgsubr
          77 -265.01 230.97 rlineto
          178.02 105 104 211 281 vvcurveto
          -566 -562.01 rmoveto
          -275 -170 216 346.01 hvcurveto
          158 vlineto
          344 168.02 215.98 274.98 282.01 163 -215.98 -344 vhcurveto
          -158 vlineto
          -346.01 -161 -216 -281.99 vhcurveto
          endchar
        </CharString>
        <CharString name="Q.smcp">
          -87 callgsubr
          hstem
          -78 callgsubr
          -99 callsubr
          745.98 118 vstem
          1084.99 524.98 rmoveto
          114.02 vlineto
          331 -194 211 -298.99 -294.01 -197 -211 -331 vhcurveto
          -114.02 vlineto
          -331 199 -209.98 293.99 50 47 6 10.97 150 callgsubr
          vhcurveto
          254 -205.98 81 24 callsubr
          -221 179.97 rlineto
          149 85.02 87 169 161 callgsubr
          vvcurveto
          -491 -437.99 rmoveto
          -231 124 callgsubr
          168 269.98 hvcurveto
          116 vlineto
          269 139.99 167 231 237 138 -167 -269 vhcurveto
          -116 vlineto
          -269.98 -36 callgsubr
          -168 -237.02 vhcurveto
          endchar
        </CharString>
        <CharString name="Q.ss06">
          375 1 callgsubr
          150 callgsubr
          vlineto
          422.01 -257 308 -346.01 -339.99 -261 -308 -422.01 vhcurveto
          106 callsubr
          81 callsubr
          58 183 callsubr
          151 callgsubr
          15.99 52 vhcurveto
          307.02 -251.98 85 74 callgsubr
          -276.01 227 rlineto
          194 115 78 callgsubr
          236 296 vvcurveto
          -601 -616 rmoveto
          -275 -205 256 360 hvcurveto
          46 vlineto
          357.99 203 262 275 283.01 197 -262 -357.99 vhcurveto
          -46 vlineto
          -360 -194 -256 -284 vhcurveto
          endchar
        </CharString>
        <CharString name="R">
          213 0 43 563.98 104 640 105 hstem
          181.99 123 720.98999 123 vstem
          846.99 633 rmoveto
          180 52 122 149 193 vvcurveto
          278 -191 151 -303 vhcurveto
          -473 -79 callsubr
          123 606.99 424 hlineto
          351 -606.99 rlineto
          132 12.98 hlineto
          -907 698 rmoveto
          640 350 vlineto
          240 79 callsubr
          43 callsubr
          -200 -166 -115 -150.02 -229 hvcurveto
          endchar
        </CharString>
        <CharString name="R.alt">
          260 -1 -2 callgsubr
          632 105 589.98999 104 hstemhm
          122 callgsubr
          -56 callgsubr
          724.01 -56 callgsubr
          -115.00002 123 hintmask 11111000
          1157.98 234.99 rmoveto
          135 vlineto
          39 callgsubr
          -62 129 -190 47 vhcurveto
          hintmask 11110100
          167 58 93 131 152 vvcurveto
          265 -173 -18 callsubr
          -312.01 vhcurveto
          -494.99 -79 callsubr
          -56 callgsubr
          656.99 400 hlineto
          hintmask 11111000
          209.02 115 -111 -177 hvcurveto
          -130.99 vlineto
          -77 13.99 -106 53 168 callsubr
          vhcurveto
          126.02 24.98 hlineto
          -53 49 -16.02 80 82 vvcurveto
          hintmask 11110100
          -492 526.01 rmoveto
          -356 589.99 370.01 hlineto
          249 -27 callgsubr
          -111 -186.99 -165 -12 callgsubr
          -127 -276.01 hvcurveto
          endchar
        </CharString>
        <CharString name="R.smcp">
          35 0 43 425.99 101 492 8 callgsubr
          151.98 -99 callsubr
          601.99 -99 callsubr
          vstem
          738.98 494.98 rmoveto
          152 -87 callsubr
          103.02 116 158 vvcurveto
          161 callgsubr
          -167.02 128 -262 vhcurveto
          -413 -73 callsubr
          -99 callsubr
          468.99 354 hlineto
          293 -468.99 rlineto
          127 9.99 hlineto
          -774 560 rmoveto
          492 292.99 vlineto
          200 109 -100 -152 -128 -96.99 -111.99 -190 hvcurveto
          endchar
        </CharString>
        <CharString name="S">
          125 -20 104 1286.99 105 hstemhm
          168 callgsubr
          124 -77 124 741.01001 -55 callsubr
          -113.99 124 hintmask 11010100
          610.97 684.99 rmoveto
          302.02 42 callgsubr
          -43 callsubr
          -81 -160.99 vvcurveto
          -164 103 callsubr
          -110 -229 vhcurveto
          hintmask 11100100
          -199 -221 86 246 hvcurveto
          -124 hlineto
          -308 285 -128 259.01 290 211 101 callsubr
          237.02 235.99 -175 141 callsubr
          -309 13 callsubr
          vhcurveto
          hintmask 11011000
          -294.02 37 callsubr
          145 callsubr
          91 140 vvcurveto
          146 124 122 240.99 238 138.02 -140 -190 vhcurveto
          67 callgsubr
          243 -192.98 192 -306.02 -286.98 -202.02 -152 -224 vhcurveto
          hintmask 11010100
          -229.99 183 -103 292.98 -82 vhcurveto
          endchar
        </CharString>
        <CharString name="S.smcp">
          -39 -15.99 145 callgsubr
          994.99 -98 callsubr
          hstemhm
          75 -97 callsubr
          -48 callsubr
          -97 callsubr
          617.98999 119 -111.98999 -105 callsubr
          hintmask 11010100
          532.99 535.98 rmoveto
          18 callgsubr
          hintmask 11100100
          82 callgsubr
          103 callgsubr
          245 163 callgsubr
          226 250 -26 callgsubr
          -27 callgsubr
          192.98 155 callgsubr
          hintmask 11011000
          -253 88 callsubr
          -81 76 callgsubr
          106 vvcurveto
          110 105 -65 callgsubr
          199 200 -27 callgsubr
          -105 123 callsubr
          vhcurveto
          -83 callsubr
          hlineto
          198 -169 152 -263 -248.02 -175.98 -122.02 166 callgsubr
          vhcurveto
          hintmask 11010100
          92 callsubr
          endchar
        </CharString>
        <CharString name="T">
          135 0 43 1307.98 105 hstem
          550.99 29 callsubr
          1171.99 7 callsubr
          -499 hlineto
          -621 -105 499 -1350.98 122 1350.98 499 hlineto
          endchar
        </CharString>
        <CharString name="T.smcp">
          -31 0 43 1018.99 8 callgsubr
          467.98 -92 callgsubr
          1012.98 1061.99 rmoveto
          -88 callsubr
          -425 vlineto
          -545 163 callgsubr
          425 -1061.99 120 1061.99 hlineto
          endchar
        </CharString>
        <CharString name="Thorn">
          127 0 43 280.99 -104 callgsubr
          625.01 -104 callgsubr
          262.03998 -70 callsubr
          -26 callgsubr
          -105 callsubr
          673.01 -92 callgsubr
          627 1152.98 rmoveto
          -324.02 303 -120 -79 callsubr
          120 142 callgsubr
          324.02 hlineto
          303 39 callgsubr
          176 238 238 -165.99 78 callsubr
          -303 hvcurveto
          -727 vmoveto
          -324.02 625.01 324.02 hlineto
          144 callsubr
          101 -158 -157 -151 -101 -159 -247.99 hvcurveto
          endchar
        </CharString>
        <CharString name="Thorn.smcp">
          -99 0 350.98 -102.98999 -88 callsubr
          496.01 -88 callsubr
          57 callsubr
          517.99998 -99 callsubr
          hintmask 01111000
          485.99 949.99 rmoveto
          -212 215 -120 hlineto
          hintmask 10111000
          -73 callsubr
          120 vlineto
          hintmask 01111000
          144 callsubr
          212 vlineto
          276.99 149 79 callsubr
          216 210 -150 145 -276 hvcurveto
          -599 vmoveto
          -212 496 212 hlineto
          216 -88 callgsubr
          -116 -137 -138 -59 callgsubr
          -105 -216 hvcurveto
          endchar
        </CharString>
        <CharString name="U">
          -19 callgsubr
          97 callsubr
          779.00002 -55 callsubr
          vstem
          1186.98 1455.98 -103 callsubr
        </CharString>
        <CharString name="U.smcp">
          72 -70 callgsubr
          hstem
          -18 callsubr
          118 650 -92 callgsubr
          1024.98 1164.98 -101 callsubr
        </CharString>
        <CharString name="Uacute">
          0 callsubr
          803.98 1850.98 rmoveto
          -45 callsubr
          231 279 rlineto
          238 -395 -103 callsubr
        </CharString>
        <CharString name="Uacute.smcp">
          31 callgsubr
          709 1564 176 callsubr
          -279 rlineto
          105 hlineto
          231.02 279 rlineto
          170.99 -399.02 -101 callsubr
        </CharString>
        <CharString name="Ucircumflex">
          -19 callgsubr
          118.01001 266.99 97 callsubr
          779.00002 -55 callsubr
          vstem
          960.98 1583.98 rmoveto
          -239.99 55 callgsubr
          108 vlineto
          166.99 183 -48 callgsubr
          hlineto
          226 -118.01 -103 callsubr
        </CharString>
        <CharString name="Ucircumflex.smcp">
          72 -70 callgsubr
          1201.98 60 callsubr
          -18 callsubr
          118 650 -92 callgsubr
          864.99 1297 rmoveto
          -240 256.98 -35 callgsubr
          14 callgsubr
          -122 -101 callsubr
        </CharString>
        <CharString name="Udieresis">
          -19 callgsubr
          176 160 97 callsubr
          99.01001 -43 callgsubr
          271.98999 165 78.01001 -55 callsubr
          vstem
          465.98 1792 rmoveto
          -52 -29.98 -35 -78 callsubr
          106 callgsubr
          29.98 -35 52 45 callgsubr
          182 callsubr
          -78 callsubr
          -45 31 -34 51 52 31 34 111 callgsubr
          -31 36 -52 hvcurveto
          284 -336.02 -103 callsubr
        </CharString>
        <CharString name="Udieresis.smcp">
          72 -70 callgsubr
          1259.98 160 hstemhm
          -18 callsubr
          118 32.98999 165 272.01001 165 15 -105 callsubr
          hintmask 00000000
          hintmask 11111000
          369.99 -40 callsubr
          hintmask 10100100
          217.99 -340.01 -101 callsubr
        </CharString>
        <CharString name="Ugrave">
          0 callsubr
          753.99 1571.98 -67 callgsubr
          541.98 -116 -103 callsubr
        </CharString>
        <CharString name="Ugrave.smcp">
          31 callgsubr
          658.98 1285 -67 callgsubr
          474.99 150 callsubr
          -101 callsubr
        </CharString>
        <CharString name="V">
          176 0 43 -43 149.99 1265.02998 60 callgsubr
          -42 callgsubr
          1201 hintmask 10110000
          1099 7 callsubr
          hintmask 01110000
          -459 -1275 -8.01 -54 callgsubr
          -9.01 -10 callgsubr
          -456.99 1275 rlineto
          -134 hlineto
          541 50 callsubr
          18 hlineto
          100 hlineto
          542 59 callsubr
          endchar
        </CharString>
        <CharString name="V.smcp">
          4 0 43 -43 121 callgsubr
          hstemhm
          -2 callgsubr
          1043 hintmask 10100000
          938.99 58 callsubr
          hintmask 01100000
          -367 -953 -25.99 -87 -25 88 -367 951.99 rlineto
          -129 hlineto
          462 51 callgsubr
          23 hlineto
          95 hlineto
          463 61 callsubr
          endchar
        </CharString>
        <CharString name="W">
          748 0 43 -43 39 callgsubr
          1118 37 callgsubr
          -40.96002 60 callgsubr
          27 callgsubr
          1721.99 hintmask 10011000
          1657 7 callsubr
          -263 -1061.99 rlineto
          hintmask 01011000
          -47 -228 -55 218 -310.99 1071.98 rlineto
          -12 hlineto
          -99 hlineto
          -316.01 -1071.98 168 callsubr
          -217 -46 226 -266.02 1062.99 rlineto
          -126 hlineto
          373 50 callsubr
          23 hlineto
          95 hlineto
          hintmask 10101000
          337 1139 -79 callgsubr
          145 36 -145 331 -1139 rlineto
          19 hlineto
          99 hlineto
          372 59 callsubr
          endchar
        </CharString>
        <CharString name="W.smcp">
          487 0 43 -43 134.98 hstemhm
          50.99 1479.98 hintmask 10100000
          1409.99 58 callsubr
          hintmask 01100000
          -226 -875.99 -74 callsubr
          -154 -36 142 -267 887.99 rlineto
          -20.01 hlineto
          -90.99 hlineto
          -271.02 -886.99 -85 callgsubr
          -142 -31 152 -227 877 rlineto
          -121 hlineto
          315.98 51 callgsubr
          29 hlineto
          87 hlineto
          289.02 934.99 21 86 22 -86 283.01 -934.99 rlineto
          -2 callgsubr
          hlineto
          92.02 hlineto
          315.98 61 callsubr
          endchar
        </CharString>
        <CharString name="X">
          166 -8 callsubr
          183 callsubr
          1142.98 vstem
          628 839.99 rmoveto
          -410.01 616 rlineto
          -147 hlineto
          482 -717 -496.99 -738.98 rlineto
          146 hlineto
          426 635.99 424 -635.99 rlineto
          146.99 hlineto
          -496.99 738.98 482 717 rlineto
          -147 hlineto
          endchar
        </CharString>
        <CharString name="X.smcp">
          -6 0 43 hstem
          41.98 999.01 vstem
          538.99 682.99 rmoveto
          -341.01 482 rlineto
          -143 hlineto
          414 -575 -427.01 -589.99 rlineto
          143.02 hlineto
          355 495.98 357.99 -495.98 rlineto
          143 hlineto
          -428.01 589.99 413 575 rlineto
          -144 hlineto
          endchar
        </CharString>
        <CharString name="Y">
          139 -8 callsubr
          549.99 123 vstem
          610.97 662 -9 callgsubr
        </CharString>
        <CharString name="Y.smcp">
          -28 0 43 hstem
          466.98 -99 callsubr
          vstem
          1035.98 1164.98 -24 callgsubr
        </CharString>
        <CharString name="Yacute">
          139 3 callsubr
          110 -57 callsubr
          549.99 123 vstem
          734.99 1844.98 rmoveto
          -45 callsubr
          230.99 279 rlineto
          -269 -1182.99 -9 callgsubr
        </CharString>
        <CharString name="Yacute.smcp">
          -28 0 43 1241.99 -57 callsubr
          466.98 -99 callsubr
          vstem
          794.99 1564 rmoveto
          -145 hlineto
          -45 callsubr
          471.99 150 callsubr
          -24 callgsubr
        </CharString>
        <CharString name="Z">
          137 0 104 1247.98 104 hstem
          -88 callgsubr
          1048 vstem
          1137.99 104 rmoveto
          -898.01 hlineto
          866 1263.99 rlineto
          88 -53.99 vlineto
          -935.02 -104 838 hlineto
          -865 -1258.99 rlineto
          -93 45 vlineto
          1003.01 hlineto
          endchar
        </CharString>
        <CharString name="Z.smcp">
          -32 0 -104 callgsubr
          961 6 callgsubr
          74 callsubr
          906.01 vstem
          228.99 140 callgsubr
          727 983 rlineto
          80 38 callsubr
          vlineto
          -810 -66 callsubr
          705 hlineto
          -726.02 -979 rlineto
          -83.99 40.02 vlineto
          866 61 callgsubr
          endchar
        </CharString>
        <CharString name="a">
          -58 callgsubr
          hstemhm
          -78 callgsubr
          119 -94 -105 callsubr
          568.99998 -99 callsubr
          hintmask 10111010
          934.99 169 callgsubr
          rmoveto
          523.02 vlineto
          234.99 -163 117 -231 vhcurveto
          hintmask 10110110
          -81 callgsubr
          hintmask 10111010
          -99 callgsubr
          hintmask 01111010
          -90 callgsubr
          hintmask 10111010
          -95 callgsubr
        </CharString>
        <CharString name="aacute">
          -58 callgsubr
          154.01001 -60 callsubr
          hstemhm
          -78 callgsubr
          119 -94 -105 callsubr
          568.99998 -99 callsubr
          hintmask 10111101
          845.99 1535 rmoveto
          -145 hlineto
          -45 callsubr
          320 -1029.02 -104 callsubr
        </CharString>
        <CharString name="acircumflex">
          -58 callgsubr
          156 -5 callsubr
          hstemhm
          -78 callgsubr
          119 -94 -105 callsubr
          568.99998 -99 callsubr
          hintmask 10111101
          578.99 1440.99 -35 callsubr
          108.02 vlineto
          523 -1031 -104 callsubr
        </CharString>
        <CharString name="acute">
          -511 56 callsubr
          121 callgsubr
          186 callsubr
          vstem
          315.98 1536 rmoveto
          -191 24 callgsubr
          104 hlineto
          232 177 callgsubr
          endchar
        </CharString>
        <CharString name="acutecomb">
          -1088 56 callsubr
          -615.99 186 callsubr
          vstem
          -425 1536 rmoveto
          -191 24 callgsubr
          105 hlineto
          231 177 callgsubr
          endchar
        </CharString>
        <CharString name="adieresis">
          -58 callgsubr
          214 160 hstemhm
          -78 callgsubr
          119 -94 -105 callsubr
          34.99998 112 callgsubr
          -68 -99 callsubr
          hintmask 0000000000000000
          hintmask 1011110110000000
          362.99 1315.98 rmoveto
          -21 callgsubr
          116 callgsubr
          25 callgsubr
          34 -87 callsubr
          126 callgsubr
          10 callgsubr
          36 -52 -51 -31 -36 106 callgsubr
          -78 callsubr
          31 -34 51 hvcurveto
          hintmask 1011101001000000
          135 -1089 rmoveto
          523.02 vlineto
          234.99 -163 117 -231 -247 -168 -156 -162 vhcurveto
          -93 callgsubr
          hintmask 1011110001000000
          -99 callgsubr
          hintmask 0111110001000000
          -90 callgsubr
          hintmask 1011101001000000
          -58 callsubr
          hintmask 1011110001000000
          -101 callgsubr
        </CharString>
        <CharString name="ae">
          644 -20 100 457.98 98 364.01001 139 callsubr
          86 -105 callsubr
          -92 -97 callsubr
          547.99998 121 637.01001 -105 callsubr
          hintmask 11110110
          1658.98 537.99 rmoveto
          100 vlineto
          287 12 callsubr
          78 callsubr
          -269 vhcurveto
          12 callsubr
          1 -131 -81 -80 -132 rrcurveto
          140.99 -53 -124 71 -166 hhcurveto
          hintmask 11101110
          -250 -164 -42 callsubr
          -187 hvcurveto
          -97 callsubr
          -12 rlineto
          79 callsubr
          184 callsubr
          103.02 185 168 -53 callgsubr
          -104 -176 vhcurveto
          -87 -256 vlineto
          hintmask 11110110
          -287.99 -151 -132.02 -206.99 -190 -26 callsubr
          -124 229 228 139.99 11 callgsubr
          98 59 hvcurveto
          -128.99 79.02 134 -78 183.99 hhcurveto
          204 110 78 53.99 57 hvcurveto
          -47 88 rlineto
          -62 148 callgsubr
          10 callsubr
          -57 -150 hhcurveto
          -253.99 -36 callsubr
          192 237 hvcurveto
          28 vlineto
          334 462.01 rmoveto
          209 94 -148 -183.99 hvcurveto
          -32 -634 vlineto
          207 23 -83 callsubr
          157 73 callgsubr
          hhcurveto
          -778 -920 rmoveto
          -166 -86 85 78 callgsubr
          79 callsubr
          104 115 217 hvcurveto
          253.99 -301 hlineto
          185 callgsubr
          -52 -134 152 callsubr
          -42 callsubr
          hhcurveto
          endchar
        </CharString>
        <CharString name="agrave">
          -58 callgsubr
          154.01001 -60 callsubr
          hstemhm
          -78 callgsubr
          119 -94 -105 callsubr
          568.99998 -99 callsubr
          hintmask 10111101
          651 1256 176 callsubr
          279 rlineto
          -145 hlineto
          227 -279 rlineto
          393.01 -1029.02 -104 callsubr
        </CharString>
        <CharString name="alpha">
          66 -39 callsubr
          110.98 141 callgsubr
          627.00002 5 callsubr
          1128.98 14 callsubr
          rmoveto
          -4 -15 -1 callsubr
          -4 -19 hhcurveto
          -58 -44 40 77 callgsubr
          hvcurveto
          807.02 -66 callsubr
          vlineto
          -14.01 -185.02 rlineto
          128 -68 -110 77 -158 129 callgsubr
          154 callgsubr
          160 112 74 callsubr
          121 76 callgsubr
          vhcurveto
          -140 19.01 63 -56.97 103 hhcurveto
          33 -42 callgsubr
          2.99 142 callsubr
          32 hvcurveto
          -599.02 78 rmoveto
          -23 callsubr
          -97 -26 callgsubr
          247 hvcurveto
          142 callsubr
          vlineto
          261 97 207 220 168 93 120 callgsubr
          -138 49 vhcurveto
          -413 vlineto
          -138 -52 -94 -104 -166.02 hhcurveto
          endchar
        </CharString>
        <CharString name="alpha.alt">
          107 -76 callsubr
          -104 callgsubr
          -81 43 956.99 139 callsubr
          110.98 141 callgsubr
          hintmask 00000000
          hintmask 01110000
          1076.98 hmoveto
          -104 540 191 callsubr
          542 rlineto
          -118 hlineto
          -45 -312.01 rlineto
          198 -60 -124.01 134 -197 129 callgsubr
          hintmask 10110000
          154 callgsubr
          201 127 137.97 193 58 vhcurveto
          hintmask 01110000
          49 -309.98 rlineto
          -91.02 494.98 rmoveto
          hintmask 10110000
          -227.99 -35.98 -106 -186 -179.02 hhcurveto
          -23 callsubr
          -97 -26 callgsubr
          247 hvcurveto
          142 callsubr
          vlineto
          261 97 207 220 202 89 -237.02 -188.99 28 vhcurveto
          endchar
        </CharString>
        <CharString name="ampersand">
          173 -20 -104 callgsubr
          -81.99 43 1331.98 -98 callsubr
          hstemhm
          -83 callgsubr
          -105 callsubr
          10.99998 -99 callsubr
          412.00002 113 165.98999 111 hintmask 00000000
          hintmask 01101110
          1231.99 hmoveto
          -200 232.98 rlineto
          -22 callgsubr
          111 45 139 169 vvcurveto
          -111 hlineto
          -129.99 -35 -113 -55.99 -91 vhcurveto
          -400.02 467 131 -78 callgsubr
          rlineto
          95 24 callsubr
          99 -78 callgsubr
          131 vvcurveto
          155 -115.02 131 -196 -203 -131 -128 -204 150 callsubr
          63.02 -104 -104 callgsubr
          -126 vhcurveto
          -14 -10 rlineto
          hintmask 10110110
          -157.99 -121.02 -124 -117.99 -175 vvcurveto
          -233 173 -158 280 153 152 callgsubr
          62.99 103 105 vhcurveto
          hintmask 01101110
          126.02 -145.98 rlineto
          -728 1148.99 rmoveto
          122 74 104 140 128 70 -89 -17 callgsubr
          -99 -62 -69 36 callsubr
          146 callsubr
          vhcurveto
          -132 -99 rlineto
          -86 106 -48 94 87 vvcurveto
          hintmask 10110110
          202 -1067 rmoveto
          -226 -28 callsubr
          136 153 -65 callsubr
          24 103.01 171 139.99 hvcurveto
          47 36 5 -5 4 -5 5 -6 rlinecurve
          406.02 -472 rlineto
          -94 -37 callgsubr
          -118 -53 -121 hhcurveto
          endchar
        </CharString>
        <CharString name="ampersand.smcp">
          155 -18 -88 callsubr
          -44 callsubr
          43 1034.98 103.01 hstemhm
          121 -97 callsubr
          -19 -11 callsubr
          335.98999 118 189.02 111.98 hintmask 00000000
          hintmask 01101110
          1160.99 hmoveto
          -194 197.98 rlineto
          80.02 -98 callsubr
          46.99 127 138 vvcurveto
          -111.99 hlineto
          -113.99 -32 -99 -56 -48 callsubr
          vhcurveto
          -345 351.99 97 71 rlineto
          72 52 75 -88 callgsubr
          99 vvcurveto
          132 -105 112 -179 -175 -112.99 -103.01 -149 -110 69.98 -79.02 104.02 99 callsubr
          vhcurveto
          hintmask 10110110
          36 callsubr
          -61 rlineto
          -117 -44 callsubr
          105 callsubr
          125 callsubr
          -134 vvcurveto
          -172.99 144 -60 callgsubr
          234 162 -18 callsubr
          52 -77 callsubr
          100 vhcurveto
          hintmask 01101110
          121 -122.98 rlineto
          -680 922.99 rmoveto
          81 58 74 108.02 110 26 callsubr
          -68 -79.02 -63 -40 -59 -63 -46 vhcurveto
          -92 -47 callgsubr
          rlineto
          -84 87 -57 -65 callsubr
          24 callsubr
          vvcurveto
          hintmask 10110110
          168 -838 rmoveto
          -181 -86 92 110 59 15.02 64 -11 callsubr
          87 hvcurveto
          92.02 104 callsubr
          360 -366.02 rlineto
          148 callgsubr
          -83 -110 -41 183 callgsubr
          hhcurveto
          endchar
        </CharString>
        <CharString name="aring">
          -58 callgsubr
          111 72 234 72 hstemhm
          -78 callgsubr
          119 -94 -105 callsubr
          142.01 76 233 76.98 41.01 -99 callsubr
          hintmask 0000000000000000
          hintmask 1011111011100000
          581 1212.99 rmoveto
          -83 callgsubr
          85 80 -2 callsubr
          -13 callsubr
          -85 -22 callgsubr
          36 callgsubr
          -36 callsubr
          -83.99 36 callsubr
          72 callgsubr
          -28 callsubr
          13 callsubr
          -80 123 callgsubr
          hvcurveto
          306 vmoveto
          -5 callgsubr
          -68.02 38 callsubr
          51 64 -65 callsubr
          -38 callsubr
          52 68.02 hvcurveto
          hintmask 1011110110100000
          354 -1292 rmoveto
          523.02 vlineto
          234.99 -163 117 -231 -247 -168 -156 -162 vhcurveto
          -93 callgsubr
          hintmask 1011111010100000
          -99 callgsubr
          hintmask 0111111010100000
          -90 callgsubr
          hintmask 1011110110100000
          -58 callsubr
          hintmask 1011111010100000
          -101 callgsubr
        </CharString>
        <CharString name="asciicircum">
          -235 1298.98 156.99 -40.95001 60 callgsubr
          11 callsubr
          687 hintmask 01100000
          764.99 728.99 rmoveto
          -299 727 rlineto
          -10 hlineto
          -48 callsubr
          hlineto
          -299.01 -727 rlineto
          115 hlineto
          hintmask 10100000
          228 570 228 -570 rlineto
          endchar
        </CharString>
        <CharString name="asciitilde">
          315 422.99 -13 callsubr
          150.99998 107 hstem
          189 callsubr
          -56 callsubr
          896.00002 105 vstem
          1254.99 764.99 rmoveto
          -105 hlineto
          -142 -71 -93 -121 -76 -55 33.02 80 -87 vhcurveto
          -65 callgsubr
          -66 callsubr
          -78.01 54 -67 callsubr
          hhcurveto
          -188 -107 -150 -189 hvcurveto
          -56 callsubr
          1 rlineto
          148 69 82.99 118 81 54 -85 callgsubr
          -76 13 callsubr
          vhcurveto
          -94 106 74 -51 118 hhcurveto
          186 111 158 183.99 hvcurveto
          endchar
        </CharString>
        <CharString name="asterisk">
          -219 1415.01999 -70 callsubr
          390.98 98.5 vstem
          361.98 1000.98 rmoveto
          -23 callsubr
          -301 85 -51 callgsubr
          204 303.98 214 -306 86.02 63 -224 294.99 334.01 114.02 107 callgsubr
          -104 callgsubr
          -325 -127 77 callsubr
          372 rlineto
          -105 hlineto
          4 -368.99 -331 122 -33 -93 callsubr
          rlineto
          endchar
        </CharString>
        <CharString name="at">
          783 -452.99 89 343.99 86 -86 98 819.98 167 callsubr
          337.99 94 hstemhm
          122 145 callgsubr
          342.01001 102.54 991.46 93 hintmask 11011111
          984.99 1420.98 rmoveto
          -502.99 -335.02 -383 -560 -24.99 hvcurveto
          -573.99 -23.02 293.01 -356.99 507 hhcurveto
          121 155 31 58 -77 callsubr
          hvcurveto
          -30 79 rlineto
          -48 152 callsubr
          -130 -54 callgsubr
          -118 hhcurveto
          -455.99 -249.02 344.99 496.99 24 hvcurveto
          514 25 304 335 430 hhcurveto
          496 188 callsubr
          -309.98 -504.02 -24.99 hvcurveto
          -252.99 -10.02 -96.99 -194 -177 hhcurveto
          -64.99 -36 callsubr
          31 214 18 hvcurveto
          50 570 rlineto
          57 -70 -64 40 callsubr
          -135 hhcurveto
          -216 -188 -218 -344 -54 callgsubr
          hvcurveto
          -269 -24 14 callsubr
          120 callsubr
          189 hhcurveto
          121 106 66 28 callgsubr
          68 callgsubr
          -123 26.01 -22 callgsubr
          105 callsubr
          128.99 hhcurveto
          270 110 281.98 251 77 callsubr
          hvcurveto
          556.01 23 -257 351.99 -532 hhcurveto
          hintmask 10111111
          -139 -1343 rmoveto
          -42 callsubr
          -60 143 188 callsubr
          22 hvcurveto
          319 31 101 callsubr
          152 160 hhcurveto
          -65 callsubr
          53 -21 -29 39 hvcurveto
          -45 -515.01 rlineto
          165 callgsubr
          -68 -109 -55 -96.01 hhcurveto
          endchar
        </CharString>
        <CharString name="atilde">
          -58 callgsubr
          180 -71 callgsubr
          13.01 138 callsubr
          -78 callgsubr
          119 -94 -105 callsubr
          2.01 89 477.98999 -99 callsubr
          -103.99998 -88 callgsubr
          hintmask 0000000000000000
          hintmask 1011011010100000
          448 1391.98 rmoveto
          55 callsubr
          hintmask 1011101010100000
          22 callsubr
          -59 callgsubr
          6 rlineto
          105 callgsubr
          -49 -48 131 callsubr
          184 callsubr
          120 callgsubr
          hhcurveto
          hintmask 1011011011000000
          -110 -44 callsubr
          42 callgsubr
          -127 hvcurveto
          89 -3.99 rlineto
          hintmask 1011011010100000
          74 -38 callsubr
          126 callgsubr
          88 callsubr
          vhcurveto
          hintmask 1011100101000000
          486.99 -1165 rmoveto
          523.02 vlineto
          234.99 -163 117 -231 -247 -168 -156 -162 vhcurveto
          -93 callgsubr
          hintmask 1011101001000000
          -99 callgsubr
          hintmask 0111101001000000
          -90 callgsubr
          hintmask 1011100101000000
          -58 callsubr
          hintmask 1011101001000000
          -101 callgsubr
        </CharString>
        <CharString name="b">
          47 -20 104 -84 159 callgsubr
          194 callgsubr
          632.01 15 callsubr
          112 vlineto
          hintmask 10111000
          6 28 callsubr
          rlineto
          -105 126 callsubr
          141 callsubr
          -64 158 hhcurveto
          261 152 130 callsubr
          -151 215 -264 vhcurveto
          294.01 -572 rmoveto
          103 callgsubr
          -97.02 -194 -23 callsubr
          -166 -12 callgsubr
          -12 callsubr
          -27 callgsubr
          -50.02 vhcurveto
          489 vlineto
          -27 callgsubr
          -87 callsubr
          -88 callgsubr
          -2 callsubr
          180 hhcurveto
          224 93 80 callsubr
        </CharString>
        <CharString name="b.ss06">
          46 69 callsubr
          194 callgsubr
          651.99998 15 callsubr
          103 vlineto
          hintmask 10111000
          12 151.98 rlineto
          72 callgsubr
          190 callsubr
          108 callgsubr
          -65.98 160 hhcurveto
          261 37 callgsubr
          227.98 142 callgsubr
          hvcurveto
          21.02 vlineto
          334.99 -170.99 215 -264 vhcurveto
          314 -571 rmoveto
          -252.99 -117 -194 -23 callsubr
          -166 -12 callgsubr
          89 115 -50.02 vhcurveto
          489 vlineto
          -27 callgsubr
          -87 callsubr
          -88 callgsubr
          -2 callsubr
          180 hhcurveto
          220 117 -191 -255 hvcurveto
          endchar
        </CharString>
        <CharString name="backslash">
          -281 1415.01999 -70 callsubr
          -38 callsubr
          724.99 vstem
          -38 callsubr
          7 callsubr
          608.01 -1580.99 rlineto
          116.99 hlineto
          -607.99 1580.99 rlineto
          endchar
        </CharString>
        <CharString name="bar">
          -635 1415.01999 -70 callsubr
          102 callgsubr
          -104 callgsubr
          vstem
          279.98 -270 rmoveto
          1725.99 -66 callsubr
          -1725.99 vlineto
          endchar
        </CharString>
        <CharString name="braceleft">
          -411 542.98 105 hstem
          299.99 5 callsubr
          418.98 58.98 rmoveto
          226.02 vlineto
          139 -53.99 -97 callsubr
          -128 52 vhcurveto
          128 53 53.99 117 140 vvcurveto
          227 vlineto
          182 67.02 77 callgsubr
          102 callgsubr
          56 vhcurveto
          -27 -29 callsubr
          rlineto
          -258 -77 -48 callsubr
          120 callsubr
          -210 vvcurveto
          -227 vlineto
          -157 -68 -100 -163 vhcurveto
          -23 vlineto
          -82 vlineto
          163 68 -12 callgsubr
          -157 hvcurveto
          -226.02 vlineto
          -209.98 -29 callsubr
          -177 258 -76.99 vhcurveto
          30 80 rlineto
          -178 59 -70 152 callgsubr
          -26 callgsubr
          vvcurveto
          endchar
        </CharString>
        <CharString name="braceright">
          -411 542.98 105 hstem
          25 callsubr
          119 vstem
          375.99 904.99 rmoveto
          227 vlineto
          210 -78.01 102 callgsubr
          -258.99 77 vhcurveto
          149 callsubr
          -48 callsubr
          rlineto
          177 -56 -65 callsubr
          103 callsubr
          -182 vvcurveto
          -227 vlineto
          -143 57.02 -118 42 callsubr
          -49 vhcurveto
          -36 callgsubr
          38 callsubr
          -57.02 -118 -143 vvcurveto
          -226.02 vlineto
          166 callgsubr
          -70.99 124 callgsubr
          -176 -59 vhcurveto
          29 -80 rlineto
          258.99 74 callgsubr
          78.01 177 209.98 vvcurveto
          226.02 vlineto
          157 68 -78 callgsubr
          163 vhcurveto
          28 vlineto
          77 vlineto
          -163 -68 100 157 hvcurveto
          endchar
        </CharString>
        <CharString name="bracketleft">
          -597 -311.99 -104 callgsubr
          1771.98 -32 callgsubr
          163.98 -99 callsubr
          vstem
          494 1561.99 rmoveto
          102.02 -330.02 -1975.99 330.02 -104 callgsubr
          -210 1771.99 vlineto
          endchar
        </CharString>
        <CharString name="bracketright">
          -597 -311.99 -104 callgsubr
          1771.98 -32 callgsubr
          210.98 -99 callsubr
          vstem
          0.98 1664 rmoveto
          -102.02 210 -1771.99 -210 -66 callsubr
          330.02 1975.99 vlineto
          endchar
        </CharString>
        <CharString name="brokenbar">
          -643 1415.01999 -70 callsubr
          14 callgsubr
          -92 callgsubr
          279.98 698 rmoveto
          757.99 -120 -757.99 vlineto
          -968 vmoveto
          120 770.99 -120 hlineto
          endchar
        </CharString>
        <CharString name="bullet">
          -425 540.99 389.98 hstem
          146.98 370.99 vstem
          146.98 751.98 rmoveto
          -35 vlineto
          -66 callsubr
          71 -74 114 122 callsubr
          126 callsubr
          74 -104 callgsubr
          vhcurveto
          35 vlineto
          103.02 -70.99 74 callsubr
          -116 104 callgsubr
          -71 -75 -104 vhcurveto
          endchar
        </CharString>
        <CharString name="c">
          -32 64 callsubr
          14 callsubr
          119 vstem
          857.99 334.99 rmoveto
          -165 -12 -139 -88 -150 hhcurveto
          -47 callsubr
          -304 158 -235.99 304 220 185 148 206.99 10 vhcurveto
          endchar
        </CharString>
        <CharString name="c.ss06">
          -20 -39 callsubr
          119 callgsubr
          vstem
          869.99 334.99 rmoveto
          -165 -11 -139 41 callgsubr
          -151 hhcurveto
          -248.02 -105 208 231 hvcurveto
          42 vlineto
          229 106 209 246 163 129 -28 callsubr
          -175 10 vhcurveto
          115 hlineto
          235 -10 -176 28 callsubr
          -231 hhcurveto
          -302 -170 -235.99 -304 hvcurveto
          -42 vlineto
          -304 170 -236.97 303 220 186 28 callsubr
          206.99 10 vhcurveto
          endchar
        </CharString>
        <CharString name="ccedilla">
          -32 -445 77 230.01 219.98 -100.98999 -78 callgsubr
          -98.99 190 callgsubr
          918.02 139 callsubr
          14 callsubr
          119 430 100 hintmask 10011110
          192 callsubr
          81.98 rmoveto
          -47 callsubr
          -283 137 -224 263.98 -29.98 vhcurveto
          hintmask 11001110
          -26.99 -121 rlineto
          118 17 callsubr
          hvcurveto
          hintmask 10101110
          -83 callsubr
          -83 41 -82 11 vhcurveto
          151 callgsubr
          183 callsubr
          206 14.01 168 101 callsubr
          10 197 rlinecurve
          -114 hlineto
          hintmask 10011110
          -165 -12 -139 -88 -150 hhcurveto
          endchar
        </CharString>
        <CharString name="cedilla">
          -589 -434.99 77 292.99 65 hstem
          299.99 100 vstem
          245.99 hmoveto
          -93 hlineto
          -28 -128 rlineto
          118.01 -11 57 -21.02 -76.98 vvcurveto
          -85.02 10 callsubr
          -35.99 -99 vhcurveto
          7 -77 rlineto
          187 107 80 -83 callsubr
          -97 callsubr
          -83 41 -82 11 hvcurveto
          endchar
        </CharString>
        <CharString name="cent">
          27 -245 326.98 -98.98 190 callgsubr
          -97.96 97.97 918.01001 317.99 hstemhm
          -105 callsubr
          -97 callsubr
          278.01 -105 callsubr
          hintmask 01011100
          581 81.98 rmoveto
          -248.02 -94 207 231 hvcurveto
          42 vlineto
          229 95 209 246 163 28 callgsubr
          -28 callsubr
          -175 10.02 vhcurveto
          -27 callgsubr
          hlineto
          -1 callgsubr
          215 -149.02 143 -202 23 rrcurveto
          219 -60 callgsubr
          -220 vlineto
          -261 -31 -136 -223 -281.99 vvcurveto
          -42 vlineto
          hintmask 00111100
          -281.99 136 -223 261 -30.98 vhcurveto
          hintmask 10011100
          -229 -105 callsubr
          vlineto
          hintmask 01011100
          228 vlineto
          195.02 22.98 156 140 151 callgsubr
          189 rrcurveto
          -113.99 hlineto
          -165 -12 -139 -88 -151 hhcurveto
          endchar
        </CharString>
        <CharString name="circumflex">
          -208 1258.98 60 callsubr
          75 callsubr
          554 vstem
          715 1268.98 rmoveto
          -240 257 -35 callgsubr
          endchar
        </CharString>
        <CharString name="colon">
          -658 -1 callgsubr
          -43 callgsubr
          758.98 165 hstem
          128.98 170 vstem
          214 1079.99 rmoveto
          -53 -32 -37 -47 -46 32 -35 53 115 callsubr
          -3.02 -924 rmoveto
          -53 -74 callsubr
          -36 -47 -46 -42 callgsubr
          95 callsubr
          endchar
        </CharString>
        <CharString name="comma">
          -695 -272.99 461.98 hstem
          -54 callsubr
          118 vstem
          271.99 -38 callsubr
          rmoveto
          140 -118 123 callsubr
          vlineto
          -106 -74 callsubr
          47 callsubr
        </CharString>
        <CharString name="copyright">
          550 -76 callsubr
          86.97 227 167 callsubr
          690.00002 -88 callgsubr
          226.01 86 hstem
          -13 callsubr
          86 280.98999 100 449.01001 99 319 86 vstem
          816.99 111 callsubr
          -391 -319 144 callgsubr
          -423.02 -423 319 -326.98 391 392.01 317.99 172 callgsubr
          -317.99 142 callgsubr
          -392.01 hvcurveto
          -1410 vmoveto
          -343 136 callgsubr
          343 91 callgsubr
          153 callgsubr
          541 rmoveto
          -99 hlineto
          -157 -76 -65.99 -140 -150 -83 -26 callsubr
          170 vhcurveto
          98 vlineto
          168 83 128 150 140 77 -70 -153 vhcurveto
          98.98 hlineto
          209 43 callsubr
          104 -192 -202 -131 -157.99 -229 vhcurveto
          -97 vlineto
          -230 131 -157 202 192 123 104 210 vhcurveto
          endchar
        </CharString>
        <CharString name="crossbar">
          -223 686.98 -32 callgsubr
          -26 callsubr
          611 vstem
          736.99 686.98 rmoveto
          -98 callsubr
          -611 10 callsubr
          vlineto
          endchar
        </CharString>
        <CharString name="currency">
          393 -20 111 1031.97 111 -96.95001 60 callgsubr
          144.99 108 callgsubr
          963.01 -27 callgsubr
          hintmask 10111000
          1334.99 607.99 rmoveto
          152 -49 -18 callsubr
          -81.99 106 vhcurveto
          37 callgsubr
          175 rlineto
          hintmask 11011000
          -87 87 -169 148 callsubr
          rlineto
          -77 callsubr
          163 callgsubr
          -132.02 52 -145 hhcurveto
          -144 -132 -52 -88 -103.01 hvcurveto
          hintmask 10111000
          -165.99 170 -85 -86 168 148 callsubr
          rlineto
          36 callsubr
          -107 38 callsubr
          -137 -154 vvcurveto
          -147 46 -134 74 callgsubr
          -105 vhcurveto
          -157.99 -162 85 -85.99 154 158 rlineto
          -95 104.99 137 -56.99 28 callsubr
          hhcurveto
          -37 callsubr
          137 56.99 26 callgsubr
          105 hvcurveto
          157 -159.99 87 86.98 -162 165 rlineto
          75 105 46 132 146 vvcurveto
          -595 -517 rmoveto
          -264.99 -217 231 286 hvcurveto
          hintmask 11011000
          285 217 229.99 147 callsubr
          264.01 217 -229.99 -285 vhcurveto
          hintmask 10111000
          -286 -217 -231 -264.01 vhcurveto
          endchar
        </CharString>
        <CharString name="d">
          50 -20 104 -84 159 callgsubr
          4 callsubr
          631.01 -105 callsubr
          hintmask 10111000
          860 1536 rmoveto
          -605.03 vlineto
          -2 callsubr
          -71 -110 64 -153 hhcurveto
          -257 -159.99 -33 callgsubr
          14 callgsubr
          -227 255 156.02 111 62.99 -98 callsubr
          126 callsubr
          vhcurveto
          hintmask 01111000
          6 -145 rlineto
          112 1536 hlineto
          hintmask 10111000
          -433.01 -1452.02 rmoveto
          -23 callsubr
          -100 194 3 callgsubr
          251.99 100 195.02 220 174 -12 callsubr
          -100 -109 47 vhcurveto
          -510 vlineto
          -112 -53 -98 -83 192 callgsubr
          hhcurveto
          endchar
        </CharString>
        <CharString name="d.ss06">
          57 69 callsubr
          135 callsubr
          -99 callsubr
          hintmask 10111000
          866.98 1536 rmoveto
          -605.03 vlineto
          -2 callsubr
          -70.98 -110 64 -153 hhcurveto
          -257 -180 -33 callgsubr
          180 -227.98 255 157 112 63.98 104 71 vhcurveto
          hintmask 01111000
          151 callgsubr
          -146.98 rlineto
          -2 callsubr
          1536 hlineto
          hintmask 10111000
          -433.01 -1452.02 rmoveto
          -23 callsubr
          9 callsubr
          194 3 callgsubr
          256 -99 callsubr
          191 220 174 -12 callsubr
          -100 -109 46.98 vhcurveto
          -510 vlineto
          -112 -52.98 -4 callgsubr
          -83 -162 hhcurveto
          endchar
        </CharString>
        <CharString name="degree">
          -314 979.98 -65 callgsubr
          315.01 90 hstem
          101 callsubr
          -88 callgsubr
          308.01 -77 callsubr
          vstem
          389 111 callsubr
          -135 -111 104 callgsubr
          -36 callgsubr
          146 callgsubr
          111 -109 135 132 109 109 138.02 42 callsubr
          -109 141 callsubr
          -132 hvcurveto
          -405.01 vmoveto
          -87 -69.02 66 -12 callsubr
          91 69.02 76 callgsubr
          87 87 65 -67.99 -91 -37 callgsubr
          -65 -66 -87 hvcurveto
          endchar
        </CharString>
        <CharString name="dieresis">
          -207 1316.98 160 hstem
          29 callgsubr
          -43 callgsubr
          272.01 -43 callgsubr
          vstem
          220 1477 -68 callsubr
          endchar
        </CharString>
        <CharString name="divide">
          76 209.98 165 269.01001 117 245.98999 165 hstem
          494.98 171 vstem
          579.99 1171.99 rmoveto
          -53 -32 -37 -46.98 -78 callsubr
          32 -36 53 53 32.99 36 -87 callsubr
          46.98 162 callgsubr
          37 -53 hvcurveto
          490 -528 rmoveto
          117 -998.01 -117 vlineto
          508 -269 rmoveto
          -53 -32 -37 -46 -46 32 -36 53 53 32.99 36 46 46 162 callgsubr
          37 -53 hvcurveto
          endchar
        </CharString>
        <CharString name="dollar">
          48 -20 105 -104 104 1285.99 104 -104 305.99 hstemhm
          116 -97 callsubr
          -68 -105 callsubr
          252.01 -104 callgsubr
          250.99998 119 -109 119 hintmask 0110011010000000
          1020.99 360.98 rmoveto
          239 -154 191 callsubr
          -250.98 13 callsubr
          vhcurveto
          -266.02 88 callgsubr
          -63 81 147 vvcurveto
          77 callgsubr
          95 78 callgsubr
          188 callsubr
          vhcurveto
          hintmask 0110011100000000
          197.02 -13 callsubr
          -146 -197 hvcurveto
          -83 callsubr
          hlineto
          269.99 -137.02 156.02 -233 21 vhcurveto
          hintmask 0101011010000000
          201.99 -66 callsubr
          vlineto
          hintmask 0110011010000000
          -201.99 vlineto
          -228 -18 -144 -144 -218 vvcurveto
          -238 155 -12 callgsubr
          253 -82 vhcurveto
          245.99 -85.02 81 152 callsubr
          -147 vvcurveto
          -152 -67 callsubr
          -122 -202 vhcurveto
          hintmask 0110101010000000
          -161.02 -185 76 147 callgsubr
          hvcurveto
          -67 callsubr
          hlineto
          hintmask 1010101010000000
          -308.98 207 -116 212.99 -14 vhcurveto
          hintmask 0110011010000000
          -187.99 -98 callsubr
          73 callgsubr
          vlineto
          233 19 150 29 callgsubr
          161 callgsubr
          vvcurveto
          endchar
        </CharString>
        <CharString name="dollar.smcp">
          -39 -236.99 320.98 -97.98999 98 994.98 100 -100 101 -101 316 hstemhm
          75 -97 callsubr
          -48 callsubr
          -97 callsubr
          260 -104 callgsubr
          255.99998 119 -111.98999 -105 callsubr
          hintmask 0101001101000000
          978.98 290.98 rmoveto
          155 callgsubr
          -253 88 callsubr
          -81 76 callgsubr
          106 vvcurveto
          110 105 -65 callgsubr
          199 vhcurveto
          hintmask 0101001110000000
          200 -27 callgsubr
          -105 123 callsubr
          hvcurveto
          -83 callsubr
          hlineto
          hintmask 0110001110000000
          -26 callgsubr
          -145 144 -230 21.01 vhcurveto
          hintmask 0100101101000000
          216 -66 callsubr
          vlineto
          hintmask 0101001101000000
          -215 vlineto
          -225.02 -14.01 12 callsubr
          -118 148 callsubr
          vvcurveto
          92 callsubr
          18 callgsubr
          hintmask 0101010101000000
          82 callgsubr
          -233 209 -105 210 -1 callsubr
          vhcurveto
          hintmask 1001001101000000
          166 callsubr
          -104 callgsubr
          vlineto
          hintmask 0101001101000000
          161 callgsubr
          vlineto
          224 14 121 callsubr
          110.98 180 vvcurveto
          endchar
        </CharString>
        <CharString name="dotlessi">
          -632 0 43 hstem
          164 callsubr
          -92 callgsubr
          287.98 hmoveto
          17 callgsubr
        </CharString>
        <CharString name="e">
          -29 -20 101 -72 callsubr
          2 callgsubr
          982 534 -106 callsubr
        </CharString>
        <CharString name="e.ss07">
          -29 -76 callsubr
          -104 callgsubr
          -72 callsubr
          2 callgsubr
          982 534 rmoveto
          -104 callgsubr
          vlineto
          278 -153 188 -275 -246.99 -217 -210 -327.99 vhcurveto
          -54 vlineto
          -308 210 -222.98 293 174 -13 callsubr
          62.97 104 callsubr
          68.02 vhcurveto
          -43 83.01 rlineto
          185 callgsubr
          -82 145 callsubr
          -39 -123 hhcurveto
          -232 -156.02 192 237 hvcurveto
          24 vlineto
          344 466 rmoveto
          203 105 -153 -182 hvcurveto
          -29 -647.99 vlineto
          218 23 132 146 185 hhcurveto
          endchar
        </CharString>
        <CharString name="eacute">
          -25 callgsubr
          832.98 1535 rmoveto
          -145 hlineto
          -45 callsubr
          380.01 -722 -106 callsubr
        </CharString>
        <CharString name="ecircumflex">
          -29 -20 101 -72 callsubr
          155.99998 266.99 2 callgsubr
          564.98 1440.99 rmoveto
          -48 callgsubr
          10.02 hlineto
          63 callsubr
          584.01 -723.99 -106 callsubr
        </CharString>
        <CharString name="edieresis">
          -29 -20 101 -72 callsubr
          213.99998 160 hstemhm
          193 callsubr
          57.99998 112 callgsubr
          -8 -99 callsubr
          hintmask 00000000
          hintmask 11111110
          349.98 1315.98 rmoveto
          58 callgsubr
          -87 callsubr
          45 -74 callsubr
          35 79 callgsubr
          116 callgsubr
          25 callgsubr
          34 -87 callsubr
          126 callgsubr
          10 callgsubr
          36 -52 -51 -31 -36 106 callgsubr
          -78 callsubr
          31 -34 51 hvcurveto
          hintmask 11111001
          195.02 -781.99 -106 callsubr
        </CharString>
        <CharString name="egrave">
          -25 callgsubr
          637.99 1256 -67 callgsubr
          453 -722 -106 callsubr
        </CharString>
        <CharString name="eight">
          48 -20 -104 callgsubr
          614 -104 callgsubr
          575.99998 -98 callsubr
          hstemhm
          41 callsubr
          -99 callsubr
          -81.99998 -97 callsubr
          613.01 -97 callsubr
          -81.99 -105 callsubr
          hintmask 11110010
          756.98 747.99 rmoveto
          hintmask 11101100
          143 57 14 callsubr
          123 154 vvcurveto
          13 callgsubr
          -185 141 -241.99 129 callsubr
          101 callsubr
          -57 vhcurveto
          hintmask 11110010
          -163.99 -57 -36 callsubr
          -134 -171 vvcurveto
          -264.99 202.02 82 callsubr
          -165 108 callsubr
          177 132 callsubr
          -131 -110 -175.99 -178.02 170 callgsubr
          307.02 -1000.02 rmoveto
          -202.02 124 callgsubr
          123 callgsubr
          194.99 186 152 callgsubr
          124 200 156 callgsubr
          -143 -36 callsubr
          165 callgsubr
          hvcurveto
          endchar
        </CharString>
        <CharString name="eight.frac">
          652.98 87 283.01001 -77 callsubr
          263.99998 -52 callsubr
          1068.99 rmoveto
          hintmask 11101100
          81 33 52 64 81 -46 callsubr
          -74 callsubr
          vhcurveto
          hintmask 11110010
          -94 107 callgsubr
          -51 callgsubr
          -70 -90.99 vvcurveto
          -148 70 callgsubr
          148 -65 callgsubr
          -51 callgsubr
          69 -94 33 53 callgsubr
          -80 -47 callgsubr
          79 callgsubr
          -95 -96.01 -47 callgsubr
          40 callsubr
          80 83 -65 callsubr
          39 callsubr
          -20 callsubr
          52 89 88 74 callgsubr
          54 107 105 80 -54 -88 -89 -3 callsubr
          -52 -106 hvcurveto
          endchar
        </CharString>
        <CharString name="eight.smcp">
          -63 -70 callgsubr
          460.99 -104 callgsubr
          430.99998 -98 callsubr
          hstemhm
          93 -97 callsubr
          -86 -105 callsubr
          533.01 -105 callsubr
          -86.99 -105 callsubr
          hintmask 11110010
          692.98 598 rmoveto
          hintmask 11101100
          124 47 82 -43 callsubr
          122 vvcurveto
          205 -168 113 -220 -220.02 -164.99 -113 -205 -121 80 -97 78 callgsubr
          -47 vhcurveto
          hintmask 11110010
          -144.02 -47 -93.99 -104 -136 vvcurveto
          -215 181.99 -111.98 238 234 185 111.98 215 135 -17 callgsubr
          105 -144.02 47 vhcurveto
          hintmask 11101100
          -447 263 rmoveto
          -4 callsubr
          110 83 191 callgsubr
          152.99 122 callsubr
          -59 callgsubr
          -128 -130 104 callgsubr
          -83 -153 -156 -111 83 130 vhcurveto
          hintmask 11110010
          267 -776 rmoveto
          -175.99 183 callgsubr
          83 146 139.99 78 callgsubr
          92.02 174 37 callgsubr
          129 -92.02 -139.99 -146 -127 -83 -172 hvcurveto
          endchar
        </CharString>
        <CharString name="eight.sup">
          48 callgsubr
          283.01001 89 263.98999 -52 callsubr
          404.99 rmoveto
          hintmask 11101100
          81 33 52 63 82 -46 callsubr
          -74 callsubr
          vhcurveto
          hintmask 11110010
          -94 107 callgsubr
          -51 callgsubr
          -70 -91 vvcurveto
          103 callsubr
          70 callgsubr
          77 callgsubr
          91 -51 callgsubr
          69.02 -94 33 53 callgsubr
          -80 -47 callgsubr
          -51 -95 -96.01 -47 callgsubr
          51 80 83 -65 callsubr
          39 callsubr
          -39 callgsubr
        </CharString>
        <CharString name="eight.tnum">
          48 -20 -104 callgsubr
          614 -104 callgsubr
          575.99998 -98 callsubr
          hstemhm
          104 -105 callsubr
          -82 119 612.98999 119 -81.98999 -105 callsubr
          hintmask 11110010
          755 747.99 rmoveto
          hintmask 11101100
          101 callsubr
          57 95 123 154 vvcurveto
          13 callgsubr
          -185 141 -242 129 callsubr
          142 -57 vhcurveto
          hintmask 11110010
          -164 -57 36 callgsubr
          -134 -171 vvcurveto
          -264.99 202 82 callsubr
          -164.99 108 callsubr
          78 callsubr
          132 callsubr
          -130.99 -110 -176 120 callsubr
          170 callgsubr
          307 -1000.02 rmoveto
          -202 -142 123 callgsubr
          194.99 186 142 124 72 callsubr
          156 callgsubr
          123 callsubr
          -36 callsubr
          -200 hvcurveto
          endchar
        </CharString>
        <CharString name="ellipsis">
          225 -1 callgsubr
          -43 callgsubr
          hstem
          166.99 170 239.98999 171 221.01001 170 vstem
          250.98 156 rmoveto
          -53 -54 callgsubr
          -36 -47 -46 -10 callgsubr
          98 callsubr
          33.02 99 callgsubr
          107 callgsubr
          36 -53 hvcurveto
          411.02 hmoveto
          -53 -32 -36 -47 -46 32 95 callsubr
          391.99 hmoveto
          -53 -74 callsubr
          -36 -47 -46 -42 callgsubr
          98 callsubr
          32.02 99 callgsubr
          -32.02 36 -53 hvcurveto
          endchar
        </CharString>
        <CharString name="emdash">
          492 686.98 -32 callgsubr
          127 1335.99 vstem
          1462.99 686.98 rmoveto
          -98 callsubr
          -1335.99 10 callsubr
          vlineto
          endchar
        </CharString>
        <CharString name="endash">
          246 686.98 -32 callgsubr
          121 callsubr
          1002 vstem
          1160.99 686.98 rmoveto
          -98 callsubr
          -1002 10 callsubr
          vlineto
          endchar
        </CharString>
        <CharString name="equal">
          45 417.99 41 callsubr
          153 callgsubr
          106 hstem
          149.99 833.98 vstem
          90 callsubr
          828.99 rmoveto
          106 -833.99 -106 vlineto
          833.99 -410.99 rmoveto
          71 callsubr
          -833.99 99 callsubr
          vlineto
          endchar
        </CharString>
        <CharString name="eth">
          104 -20 104 776.99 104 169.04 -97 callgsubr
          259.04 -70 callsubr
          149.99 -105 callsubr
          666.01 5 callsubr
          810.99 1303.98 rmoveto
          179 111 -51 24 callsubr
          -194.99 -121 -110 93.99 146 callgsubr
          70 -160.99 48 rlinecurve
          -38 -104 126.01 -40 118 -55 99 -76.99 rlinecurve
          -206 -128 39 callsubr
          105 callgsubr
          226 140 104.02 -103 75 -136 -10 callgsubr
          -180 rlinecurve
          88 -3 callsubr
          -122 55 -132 hhcurveto
          -263.99 -174 -190.02 -309 -270.99 191 -215 275 255 184 225.99 329.01 hvcurveto
          -77 callsubr
          vlineto
          289.02 -86 226 -158 -43 callgsubr
          vhcurveto
          78 callgsubr
          -768.99 rmoveto
          -260.02 -122 -191 -194 -225 183 callgsubr
          193 73 callgsubr
          230 111 165 229 175.99 106 -89 -89 42 vhcurveto
          1 -19 1 -18.99 -19 vvcurveto
          endchar
        </CharString>
        <CharString name="exclam">
          -626 -1 callgsubr
          14 callgsubr
          1264.01999 60 callgsubr
          -54 callsubr
          165 -148.5 116.98 hintmask 11010000
          284 406 rmoveto
          6.98 1049.99 rlineto
          43 callsubr
          hlineto
          7 -1049.99 rlineto
          hintmask 11100000
          62 -255 rmoveto
          -51 10 callgsubr
          -35 -78 callsubr
          -45 25 callgsubr
          -34.97 51 51 32 34.97 111 callgsubr
          -32 35 -51 hvcurveto
          endchar
        </CharString>
        <CharString name="exclamdown">
          -635 941.99 14 callgsubr
          hstemhm
          140.98 165 -134.5 117.49 hintmask 00000000
          hintmask 11000000
          223.99 942 rmoveto
          51 25 callgsubr
          89 callgsubr
          -87 callsubr
          150 callgsubr
          10 callgsubr
          35 -51 -52 10 callgsubr
          -35 106 callsubr
          -78 callsubr
          25 callgsubr
          -35.99 52 hvcurveto
          hintmask 10100000
          -49 -252 rmoveto
          -6.99 -1049.99 rlineto
          -56 callgsubr
          hlineto
          -6 1049.99 rlineto
          endchar
        </CharString>
        <CharString name="f">
          -410 -66 callgsubr
          vstem
          570.98 1451.99 rmoveto
          -87 callsubr
          -42 callgsubr
          -4 -8.01 33 hvcurveto
          77 callsubr
          100 rlineto
          12 -42 106 callsubr
          5 -42 hhcurveto
          -198 -52 callgsubr
          28 callgsubr
          vhcurveto
          endchar
        </CharString>
        <CharString name="f_f">
          269 -66 callgsubr
          558.99998 119 vstem
          243 1216.98 rmoveto
          -134.99 -180 -98.02 180 -983.98 118.99 983.98 259.01 98.02 -259.01 134.99 vlineto
          -84 callgsubr
          1006 235 rmoveto
          45 32 -4 -8.01 33 hvcurveto
          151 callgsubr
          100 rlineto
          12 -41.99 -44 5 -42 hhcurveto
          -198 -121 -19 callsubr
          -77 callgsubr
          119 90 callsubr
          258.99 -3 callgsubr
          -258.99 -4 callsubr
          vlineto
          -37 callsubr
          79 85 130 vhcurveto
          endchar
        </CharString>
        <CharString name="f_f_i">
          608 0 43 940.98 98.01 366.00002 11 callgsubr
          hstem
          242.99 -97 callsubr
          460.99998 -105 callsubr
          461.01 119 vstem
          942.98 1196.99 rmoveto
          163 149 callgsubr
          62 callgsubr
          -92 20.01 -89 hhcurveto
          166 callsubr
          -137.02 -128 -232 hvcurveto
          -115 -147 vlineto
          -314 -4 callsubr
          hlineto
          -84 callgsubr
          -77 callgsubr
          -97 callsubr
          90 callsubr
          282.01 vlineto
          179 -983.98 120 90 callsubr
          254 -3 callgsubr
          -254 hlineto
          461 hmoveto
          -1082 -83 callsubr
          1082 vlineto
          endchar
        </CharString>
        <CharString name="f_f_l">
          608 -66 callgsubr
          460.99998 -105 callsubr
          461.01 119 vstem
          1149.99 1556.99 rmoveto
          -206 -121 -19 callsubr
          -134.99 -142 vlineto
          -319 -4 callsubr
          hlineto
          -84 callgsubr
          -77 callgsubr
          -97 callsubr
          90 callsubr
          282.01 vlineto
          179 -983.98 120 90 callsubr
          258 -3 callgsubr
          -258 -4 callsubr
          hlineto
          -37 callsubr
          37 callsubr
          85 42 callsubr
          72 82 -12 -18 92 vhcurveto
          -1421.99 -83 callsubr
          1495.98 vlineto
          31 -130 -151 30 -92 hhcurveto
          endchar
        </CharString>
        <CharString name="f_l">
          27 -66 callgsubr
          460.99998 -92 callgsubr
          569 1556.99 rmoveto
          -205 -52 callgsubr
          42 callsubr
          24 callsubr
          81 -12 -18 92 vhcurveto
          -1421.99 120 1495.98 vlineto
          31 -130.99 -151 30 -92 hhcurveto
          endchar
        </CharString>
        <CharString name="fi">
          13 0 43 940.98 98.01 366.00002 11 callgsubr
          hstem
          227.98 -99 callsubr
          460.99 -99 callsubr
          vstem
          348 1196.99 rmoveto
          163 -53 callgsubr
          62 callgsubr
          -90.99 20.01 -37 callgsubr
          hhcurveto
          166 callsubr
          -137 -128 -232 hvcurveto
          -115 -179 -4 callgsubr
          179 -983.98 120.02 90 callsubr
          253.99 -3 callgsubr
          -253.99 vlineto
          460.99 hmoveto
          -1082 -99 callsubr
          1082 vlineto
          endchar
        </CharString>
        <CharString name="five">
          48 -20 -104 callgsubr
          743 11 callgsubr
          410.99998 111 hstem
          164 callsubr
          115 643.98999 -99 callsubr
          vstem
          218.99 746.99 rmoveto
          94 -27 rlineto
          64 71 70.98 41 139 hhcurveto
          214.02 -97 callsubr
          -157 -206 -241.99 -109 146 callgsubr
          -207.02 -189.99 -116 105 196.02 -22 hvcurveto
          -115 hlineto
          -273 24 187.99 -130 230.99 hhcurveto
          303 133.02 205 279 290 -172 180 -260 -121 163 callsubr
          -45 -36 -49.99 hvcurveto
          52 491.99 rlineto
          625 111 -728 hlineto
          endchar
        </CharString>
        <CharString name="five.frac">
          652.98 87 351.01001 82 189.98999 90 35 callgsubr
          1061.99 -53 callsubr
          147 157.99 46 callgsubr
          -12 callsubr
          -463.02 hlineto
          endchar
        </CharString>
        <CharString name="five.smcp">
          -63 -70 callgsubr
          561.98 -98 callsubr
          308.00002 -83 callgsubr
          hstem
          823.99 -92 callgsubr
          78 callsubr
          593 rmoveto
          94 149 callsubr
          rlineto
          47 64 58 32.99 167 callgsubr
          hhcurveto
          191 -56 callsubr
          -111 -162 -180 -88 -109 -194.99 -146 -115.02 77 146.99 -18 hvcurveto
          -116.99 hlineto
          -216.99 18.99 185.02 36 callgsubr
          192 hhcurveto
          280.99 122 168.98 219 233.99 -163 143 165 callsubr
          -112 -37 callgsubr
          -35 149 callsubr
          106 callsubr
          hvcurveto
          47 369.01 rlineto
          566 -83 callgsubr
          -666.01 hlineto
          endchar
        </CharString>
        <CharString name="five.sup">
          48 callgsubr
          351 82 190 90 35 callgsubr
          397.99 rmoveto
          83 -22 rlineto
          28 38 -76 callgsubr
          23 85 hhcurveto
          -99 callsubr
          -65 callsubr
          -69 -66 callsubr
          -110.02 -53 -70 -122 -92 -71 46.02 -88 callgsubr
          -1 callgsubr
          hvcurveto
          -105 hlineto
          -147 11 130 -75.98 42 callsubr
          hhcurveto
          194 86 -97 callsubr
          147 158 72 callgsubr
          -43 callsubr
          -163 -72 -60 -23 -15 -28 hvcurveto
          29 227.99 97 callgsubr
        </CharString>
        <CharString name="five.tnum">
          43 endchar
        </CharString>
        <CharString name="four">
          48 0 43 324.98 -98 callsubr
          832.00002 -54 callsubr
          -40.96002 60 callgsubr
          751.98 -99 callsubr
          hintmask 11011000
          1099 470 rmoveto
          -227 985.99 -31 hlineto
          -100 hlineto
          -673 -1019 rlineto
          -69 683.99 -367.98 120.02 367.98 227 vlineto
          -884 102.02 rmoveto
          hintmask 11101000
          483.99 739 53 93 rlineto
          -832 vlineto
          endchar
        </CharString>
        <CharString name="four.frac">
          850.98 64 callgsubr
          939.99 44 callsubr
          -67.02 rlineto
          143 callgsubr
          -187 105 187 127 hlineto
          186 callgsubr
          88 callgsubr
          93 callsubr
        </CharString>
        <CharString name="four.smcp">
          -63 0 388.99 -102.01001 -98 callsubr
          hstemhm
          670.98 -99 callsubr
          hintmask 01100000
          990.99 389 rmoveto
          165 callgsubr
          775.99 -33 hlineto
          -97 hlineto
          -601 -804.99 2 125 callgsubr
          rlineto
          609 hlineto
          hintmask 10100000
          -286.98 -99 callsubr
          vlineto
          hintmask 01100000
          286.98 72 callsubr
          vlineto
          -791 67 callsubr
          421 545 50 84 rlineto
          -629 vlineto
          endchar
        </CharString>
        <CharString name="four.sup">
          0 275.98 -89 89 hstemhm
          461.98 105 hintmask 01100000
          187 callsubr
          275.98 44 callsubr
          124 callsubr
          rlineto
          143 callgsubr
          hlineto
          hintmask 10100000
          -186.98 105 vlineto
          hintmask 01100000
          186.98 127 vlineto
          186 callgsubr
          89 93 callsubr
        </CharString>
        <CharString name="four.tnum">
          140 endchar
        </CharString>
        <CharString name="fraction">
          -170 121 1185.99 hstem
          75 callgsubr
          786 vstem
          -18 callsubr
          121 rmoveto
          711 1137.99 -75 48 -711 -1138.01 rlineto
          endchar
        </CharString>
        <CharString name="g">
          49 -432 -98 callsubr
          309.99 104 913.99 69 callgsubr
          867.98 1082 rmoveto
          -5 -156.02 rlineto
          111 -71 -111 65 -155 hhcurveto
          -260 -157 -33 callgsubr
          158 -227 25 callsubr
          154 110 27 callgsubr
          100 190 callsubr
          vhcurveto
          -125.99 vlineto
          -216.98 -117 -128 -204 -116 -100 47 109 -87 vhcurveto
          124 callsubr
          125 callgsubr
          rlineto
          -122.99 87.02 73 callsubr
          146 callsubr
          135 hhcurveto
          262.98 171 169 281.98 hvcurveto
          1063.02 vlineto
          -433.01 179 callsubr
          -100 194 3 callgsubr
          251.99 100 195.02 -7 callgsubr
        </CharString>
        <CharString name="g.alt">
          -9 -438 101 421.99 -104 callgsubr
          204.99998 -98 callsubr
          489.00002 99 -82 139 callsubr
          26 callsubr
          -99 callsubr
          -60.01 -105 callsubr
          -39.99 111 501 -105 callsubr
          -41.99 -105 callsubr
          hintmask 0000000000000000
          hintmask 1111000101000000
          618.99 186.98 rmoveto
          -181 hlineto
          -65.99 -61 20.01 77 75 callgsubr
          39 41 34.02 25 hvcurveto
          -13 150 callgsubr
          48 -7 52 hhcurveto
          hintmask 1111001010000000
          237 167 154 185 hvcurveto
          22 vlineto
          91 162 callgsubr
          37 callsubr
          -59 60 vhcurveto
          171 hlineto
          -2 99 rlineto
          -338 hlineto
          hintmask 1110101010000000
          12.99 -45 -48 7 -52 hhcurveto
          -237 -169 -147 -202 hvcurveto
          -22 vlineto
          -27 callsubr
          70 -105 112 66 callsubr
          hintmask 1111000110000000
          -50 -39 -52 -59 -91.02 vvcurveto
          -61.99 26.01 -43 41 -27 vhcurveto
          hintmask 1111010001000000
          -110 -49.99 -97.01 -95 -42 callsubr
          vvcurveto
          -153 150 -128 284.02 330 186 182 153 vhcurveto
          hintmask 1111000101000000
          195.99 -156 93.99 -235 vhcurveto
          hintmask 1110101010000000
          -379 566 rmoveto
          131 114.02 116 37 callgsubr
          173 141 callsubr
          -116 -131 vhcurveto
          -22 vlineto
          -117 -111 -120 -173 -175 104 callgsubr
          120 117 vhcurveto
          hintmask 1111010001000000
          254.02 -1067.99 rmoveto
          -216 -98 -88 callgsubr
          -56 callsubr
          106 85 92.98 105 29 hvcurveto
          -2.99 16 17 -1 17 hhcurveto
          199 hlineto
          196 87 callsubr
          -77 -110.98 -104 -141 -130 -255 hvcurveto
          endchar
        </CharString>
        <CharString name="g.ss06">
          55 -432 -98 callsubr
          309 -55 callgsubr
          914.00002 104 hstem
          135 callsubr
          -99 callsubr
          vstem
          884.98 1082 rmoveto
          -12 -161 rlineto
          114.01 148 callgsubr
          -111 -65 callsubr
          -157 hhcurveto
          -260 -177 -33 callgsubr
          177 -227.98 147 callgsubr
          153 111 61.97 100 27 callsubr
          vhcurveto
          -99 vlineto
          -233.98 -104.98 -137.99 -217 -112 -98 28 -38 callsubr
          -88 vhcurveto
          -36 -92 rlineto
          -58 96.02 29 callgsubr
          -29 -104 callgsubr
          hhcurveto
          278.02 162 179 299 hvcurveto
          1036 vlineto
          -434.01 179 callsubr
          -27 callsubr
          194 3 callgsubr
          256 -83 callsubr
          191 220 177 -77 callsubr
          -66 callsubr
          -111 46 vhcurveto
          -502 vlineto
          143 callsubr
          -52 -97 -85 -165 hhcurveto
          endchar
        </CharString>
        <CharString name="g.ss07">
          49 -432 -98 callsubr
          309 -55 callgsubr
          914.00002 69 callgsubr
          878.98 1082 rmoveto
          -12.99 -161 rlineto
          114.01 -71 -111 -65 callsubr
          -158 hhcurveto
          -260 -157 95 callgsubr
          158 -221.98 25 callsubr
          154 110 61.97 100 190 callsubr
          vhcurveto
          36 callgsubr
          vlineto
          -228.98 -104 -134 -217 -106 -90.99 24 150 callgsubr
          36 callsubr
          vhcurveto
          -35 145 callsubr
          rlineto
          -49 167 callsubr
          128.99 -25.01 -3 callgsubr
          hhcurveto
          278 75 callsubr
          175 293.98 hvcurveto
          1045.01 vlineto
          -433.01 179 callsubr
          -100 188 13 callgsubr
          hvcurveto
          21.02 vlineto
          255 100 197 -7 callgsubr
        </CharString>
        <CharString name="germandbls">
          113 -76 callsubr
          -104 callgsubr
          -81 43 1399.97 101 hstemhm
          151.98 119 342 -99 callsubr
          5.98001 118 120.02 -97 callsubr
          hintmask 00000000
          hintmask 01110110
          270.99 hmoveto
          1128 vlineto
          161 callgsubr
          -71 callgsubr
          92 191 callgsubr
          116 145 callgsubr
          152 callsubr
          -129 vhcurveto
          -167 -125.99 -54 -183 vvcurveto
          hintmask 10111010
          -258.99 364.01 -51 -210 vvcurveto
          -123 -4 callgsubr
          -103 -173 -99 -110 150 callgsubr
          36 38 callsubr
          vhcurveto
          107 callgsubr
          -101 rlineto
          -42 52 140 -38.97 113 hhcurveto
          193.99 182 108 callgsubr
          215 hvcurveto
          147 callsubr
          -362.99 57 196.02 173 -56 callgsubr
          -76 callgsubr
          201 vvcurveto
          hintmask 01110110
          199 -156 -83 callgsubr
          -188 166 callsubr
          146 callgsubr
          -144 -272 vhcurveto
          -1128 vlineto
          endchar
        </CharString>
        <CharString name="grave">
          -503 56 callsubr
          -88 callsubr
          186 callsubr
          vstem
          438.99 1256.98 -30 callgsubr
          endchar
        </CharString>
        <CharString name="gravecomb">
          -1088 56 callsubr
          -800.99 186 callsubr
          vstem
          -465 1256.98 -30 callgsubr
          endchar
        </CharString>
        <CharString name="greater">
          -26 231.99 853.99 hstem
          -56 callgsubr
          845 vstem
          -56 callgsubr
          1085.99 rmoveto
          -124 vlineto
          711 -302 -711 -304 rlineto
          43 callsubr
          vlineto
          845 378.98 rlineto
          18 vlineto
          37 callsubr
          vlineto
          endchar
        </CharString>
        <CharString name="guillemotleft">
          -155 77 callgsubr
          777.01 hstem
          -55 callsubr
          710 vstem
          523.98 925 8 callsubr
          584.99 388.01 8 callsubr
          endchar
        </CharString>
        <CharString name="guillemotright">
          -159 161.99 782.99 hstem
          115 720.99 vstem
          515.99 541 rmoveto
          18.99 vlineto
          -295 385 rlineto
          96 callgsubr
          320 782.99 rmoveto
          96 callgsubr
          295 158 callgsubr
        </CharString>
        <CharString name="guilsinglleft">
          -479 164 callsubr
          776.99 hstem
          -83 callgsubr
          400.99 vstem
          508.99 184 callgsubr
          rmoveto
          -106 hlineto
          -294.99 -379 rlineto
          -6 vlineto
          -13 vlineto
          294.99 -378.98 rlineto
          106 hlineto
          -276 388 rlineto
          endchar
        </CharString>
        <CharString name="guilsinglright">
          -479 161.99 782.99 hstem
          98 399.99 vstem
          203.98 184 callgsubr
          rmoveto
          99 callsubr
          hlineto
          275.99 -394 -275.99 -389 rlineto
          71 callsubr
          hlineto
          294.01 158 callgsubr
        </CharString>
        <CharString name="h">
          37 0 43 162 callsubr
          8 callgsubr
          119 callsubr
          577.01 -92 callgsubr
          628 139 callgsubr
          -154 -123 -80 -121 -75 hvcurveto
          635 -60 callgsubr
          -1536 -105 callsubr
          742.99 vlineto
          -74 callgsubr
        </CharString>
        <CharString name="hyphen">
          -502 31 callsubr
        </CharString>
        <CharString name="i">
          -628 0 43 1272.98 160 hstemhm
          28 callsubr
          165 -143 119 hintmask 00000000
          hintmask 11100000
          230.99 111 callsubr
          -51 -31 181 callsubr
          31 -35 51 52 31 35 44.02 126 callgsubr
          -31 36 -52 hvcurveto
          hintmask 11010000
          59 -1475.99 rmoveto
          1082 -27 callsubr
          -1082 vlineto
          endchar
        </CharString>
        <CharString name="iacute">
          62 callsubr
          352.99 1523 rmoveto
          -45 callsubr
          231 279 rlineto
          -210 -1523 rmoveto
          17 callgsubr
        </CharString>
        <CharString name="icircumflex">
          -632 0 43 1202.98 60 callsubr
          164 callsubr
          -92 callgsubr
          508.99 1256 177 callsubr
          -237.97 -255 rlineto
          -12 107.99 157 callgsubr
          -221 -1245.98 rmoveto
          17 callgsubr
        </CharString>
        <CharString name="idieresis">
          -632 0 43 1260.98 160 hstem
          -67.99 -43 callgsubr
          126 callsubr
          -105 callsubr
          80.99998 165 vstem
          13.99 1463.99 rmoveto
          -51.98 4 callgsubr
          51.98 -21 callgsubr
          117 callsubr
          25 callgsubr
          34.02 45 45 10 callgsubr
          36 -52 hvcurveto
          -163 -1463.99 rmoveto
          17 callgsubr
        </CharString>
        <CharString name="igrave">
          62 callsubr
          302 1244 176 callsubr
          115 callgsubr
          95 -1244 rmoveto
          17 callgsubr
        </CharString>
        <CharString name="j">
          -620 -437 104 1648.98 160 hstemhm
          144.99 -43 callgsubr
          -143.99 -105 callsubr
          hintmask 00000000
          hintmask 11100000
          169 callgsubr
          111 callsubr
          -51 -54 callgsubr
          181 callsubr
          -10 callgsubr
          -35 51 58 callgsubr
          44.02 126 callgsubr
          -74 callsubr
          36 79 callgsubr
          hvcurveto
          hintmask 11010000
          59 -394 112 callsubr
          -1211 hlineto
          -36 callgsubr
          -64 -68.01 -114.99 -30 -35.99 7 7 -24 vhcurveto
          -1 -99 rlineto
          -12 31 40.98 -7 34 hhcurveto
          184 99.99 109 199 hvcurveto
          endchar
        </CharString>
        <CharString name="k">
          -84 0 43 hstem
          156.99 5 callsubr
          850.98 hmoveto
          144 hlineto
          -499 625.99 459 456 rlineto
          -151 hlineto
          -414.99 -406.02 104 callgsubr
          -122 rlineto
          982.02 -67 callsubr
          -1536 -97 callsubr
          413.98 vlineto
          137 131 rlineto
          endchar
        </CharString>
        <CharString name="k.alt">
          -82 0 43 484.99 6 callgsubr
          121 callsubr
          -99 callsubr
          vstem
          854 hmoveto
          145 hlineto
          -482 588.98 437 493.02 rlineto
          -145.02 hlineto
          -402.99 -452.01 rlineto
          -127 906.02 9 callsubr
          -1536 -99 callsubr
          527.99 138 hlineto
          endchar
        </CharString>
        <CharString name="k.alt2">
          -106 0 43 473.99 6 callgsubr
          121 callsubr
          -99 callsubr
          vstem
          791 hmoveto
          150 hlineto
          -541 572.99 507 509.01 rlineto
          -157 hlineto
          -460 -463.01 rlineto
          -11 941 9 callsubr
          -1559.98 -99 callsubr
          517 17.99 hlineto
          endchar
        </CharString>
        <CharString name="l">
          -628 0 43 hstem
          170.99 119 vstem
          290 hmoveto
          1536 -27 callsubr
          -1536 vlineto
          endchar
        </CharString>
        <CharString name="less">
          -41 229.99 852.99 hstem
          76.98 828 vstem
          904.99 1082.98 rmoveto
          -828.01 -378 rlineto
          -18 vlineto
          -3 callsubr
          vlineto
          828.01 -379 rlineto
          -26 callsubr
          vlineto
          -696 300.01 696 302 rlineto
          endchar
        </CharString>
        <CharString name="logicalnot">
          30 669.98 106 hstem
          816.98 -92 callgsubr
          121 callgsubr
          775.99 rmoveto
          -106 692 -284 120 284 vlineto
          106 vlineto
          endchar
        </CharString>
        <CharString name="longs">
          -623 0 43 1411.98 -32 callgsubr
          166.99 -92 callgsubr
          166.99 hmoveto
          120 1216.98 hlineto
          -37 callsubr
          75 87.99 131 46 28 -5 -7.99 25 callgsubr
          vhcurveto
          14.99 -43 callsubr
          rlineto
          13 106 callsubr
          -46 6 -78 callsubr
          hhcurveto
          -192.99 -118 -19 callsubr
          endchar
        </CharString>
        <CharString name="longst">
          127 -20 105 -85 43 940.98 98.01 350.03 -97 callgsubr
          -18 -98 callsubr
          hstemhm
          242.99 -97 callsubr
          410.01 -105 callsubr
          hintmask 10110110
          1129.98 -43 callsubr
          rmoveto
          -5 -26.99 -34 -6 -36 hhcurveto
          -74 124 callsubr
          185 callsubr
          152 hvcurveto
          720 224 -3 callgsubr
          -224 390.99 vlineto
          hintmask 01101110
          48 -99 -130.99 36 -36 callsubr
          hhcurveto
          -192.99 -117 -19 callsubr
          -77 callgsubr
          -97 callsubr
          1216.98 vlineto
          -37 callsubr
          76 87.99 130 66 93 -18.99 -24 45 vhcurveto
          -148 vlineto
          -181.99 -199 -4 callgsubr
          199 -720 vlineto
          hintmask 10110110
          -217 98 -47 callgsubr
          -18 callsubr
          47 52 6 10.02 29 vhcurveto
          endchar
        </CharString>
        <CharString name="m">
          728 0 43 162 callsubr
          8 callgsubr
          149.99 -105 callsubr
          578.01 -105 callsubr
          580.99998 119 vstem
          1314 139 callgsubr
          -173.02 -128 -88 -121 -69 hvcurveto
          147 -47.98 -118.01 62 -158 hhcurveto
          -160 -67 callsubr
          -77 -117.99 185 callgsubr
          hvcurveto
          -2.99 175 rlineto
          -116 -1082 -105 callsubr
          744 hlineto
          28 callgsubr
          40 94 78 callgsubr
          181 hhcurveto
          156 107 -68.02 -215 hvcurveto
          -715.98 120 715.98 vlineto
          12 126.01 103 155 202.02 2 rrcurveto
          156 1 -83 callgsubr
          -65 -229 vvcurveto
          -705.99 -83 callsubr
          704.98 vlineto
          281 -129 116 -225 vhcurveto
          endchar
        </CharString>
        <CharString name="macron">
          -213 1344 -71 callgsubr
          hstem
          -18 callsubr
          619.99 vstem
          756.98 1344 rmoveto
          -71 callgsubr
          -619.99 -96.99 vlineto
          endchar
        </CharString>
        <CharString name="minus">
          81 686.98 -32 callgsubr
          39 callgsubr
          834.99 vstem
          1000.98 686.98 rmoveto
          -98 callsubr
          -834.99 10 callsubr
          vlineto
          endchar
        </CharString>
        <CharString name="multiply">
          -16 145 callgsubr
          875 hstem
          93.98 873 vstem
          966.98 180 rmoveto
          -357.99 365 343 349 125 callsubr
          81 -343 -350 -343 350 -48 callsubr
          -81 343 -349 -357.01 -365 37 callsubr
          -80.02 356.99 365.02 358.01 -365.02 rlineto
          endchar
        </CharString>
        <CharString name="n">
          38 0 43 162 callsubr
          8 callgsubr
          119 callsubr
          577.01 -92 callgsubr
          628 139 callgsubr
          -155 -123 -81 -122 -75 hvcurveto
          -3.99 183 rlineto
          -115 -1082 -105 callsubr
          742.99 hlineto
          -74 callgsubr
        </CharString>
        <CharString name="nine">
          48 -10.99 104 383.98001 -88 callsubr
          793.01 8 callgsubr
          -104 callgsubr
          118 664.98999 -99 callsubr
          vstem
          541 111 callsubr
          -276 -163 -231 -280 -250 145 -238 272 191 callgsubr
          132 80 -11 callsubr
          -29 callsubr
          hvcurveto
          -331.98 -6.99 -139.02 -250 -410.99 hhcurveto
          -25 hlineto
          -0.99 -103.99 rlineto
          25.99 hlineto
          526.01 151 357.99 432 hvcurveto
          116 vlineto
          339.99 -151 241 -313 vhcurveto
          -7 -896 rmoveto
          -204 -110 191 199 215 122 188 201.99 200 140.99 -160 -305.99 hvcurveto
          -70 vlineto
          -130 -45 -123 -127 166 callgsubr
          hhcurveto
          endchar
        </CharString>
        <CharString name="nine.frac">
          655.99 87 176 -53 callgsubr
          370.99998 -9 callsubr
          1463.99 rmoveto
          -170.99 -36 callsubr
          -127 -153 -148 94 -116.99 165 -53 callgsubr
          71 89 callgsubr
          52 43 hvcurveto
          -167 -9.02 -94 -97 -209 -17 callsubr
          -71 callgsubr
          100 66 -88 callgsubr
          109 107 71 -70 124 callgsubr
          hvcurveto
          -50 vlineto
          168 callsubr
          -24 -61 -54 133 callgsubr
        </CharString>
        <CharString name="nine.smcp">
          -63 -9.99 -104 callgsubr
          286.98 100 599 103.01 hstem
          -53 callgsubr
          123 571.98999 -99 callsubr
          vstem
          488.98 1181 rmoveto
          -249 -154.99 -186.02 -223.99 -208 -18 callsubr
          -184.02 245 141 110 88 callsubr
          86 62 hvcurveto
          -256 -1 callgsubr
          -136 -179 -339.99 hhcurveto
          -23 hlineto
          -1 -66 callsubr
          rlineto
          24 hlineto
          444.99 160 267.98 361 hvcurveto
          95 vlineto
          280.98 -139 186.02 -272.02 vhcurveto
          -4 -702.01 rmoveto
          -180 -97 142 152 161 -13 callsubr
          144 176 171 -11 callsubr
          -117.99 -230.02 hvcurveto
          -58 vlineto
          -98 -35.99 -104 -95 -155.02 hhcurveto
          endchar
        </CharString>
        <CharString name="nine.sup">
          -8 87 175.99 -53 callgsubr
          370.99998 -9 callsubr
          799.99 rmoveto
          -170.99 -36 callsubr
          -127 -153 103 callsubr
          94 -117 165 -53 callgsubr
          71 35.98 53 44 hvcurveto
          -167 -9.01 -94 -98 -210 -17 callsubr
          97 100 66 -88 callgsubr
          109 107 71 -70 124 callgsubr
          hvcurveto
          -50.02 vlineto
          168 callsubr
          -23 146 callsubr
          -54 133 callgsubr
        </CharString>
        <CharString name="nine.tnum">
          93 endchar
        </CharString>
        <CharString name="ntilde">
          38 0 43 162 callsubr
          -88 callsubr
          178.99998 -34 callsubr
          119 callsubr
          -74 callsubr
          -77 callsubr
          493.99998 90 -63.98999 -105 callsubr
          hintmask 00000000
          hintmask 11010110
          443.99 1390.98 rmoveto
          114.01 7 callgsubr
          hintmask 11100110
          22 callsubr
          -37 callgsubr
          6 rlineto
          105 callgsubr
          38 callsubr
          -47.99 -61 85 callsubr
          hintmask 11010101
          -110 -85 42 callgsubr
          -127 hvcurveto
          -77 callsubr
          -4 rlineto
          hintmask 11010110
          74 49 45 62 vhcurveto
          hintmask 11101001
          184 -289 rmoveto
          -155 -123 -81 -122 -75 hvcurveto
          -3.99 183 rlineto
          -115 -1082 -105 callsubr
          742.99 hlineto
          -74 callgsubr
        </CharString>
        <CharString name="numbersign">
          103 0 43 366.98 94 441 95 375.04 -70 callsubr
          -53 callgsubr
          1115.99 vstem
          1200.99 184 callgsubr
          rmoveto
          95 -229 vlineto
          37 callsubr
          415.99 rlineto
          -100 hlineto
          -78 -415.99 rlineto
          -314 hlineto
          78 415.99 rlineto
          -100 hlineto
          -3 callsubr
          -415.99 rlineto
          -298 -95 280 hlineto
          -83 -441 rlineto
          -273 -94 255 hlineto
          -77 135 callgsubr
          314 hlineto
          -78.01 135 callgsubr
          273 94 -255 hlineto
          83 441 rlineto
          -182 -441 rmoveto
          -314 hlineto
          83 441 rlineto
          314 hlineto
          endchar
        </CharString>
        <CharString name="o">
          60 64 callsubr
          -65 callgsubr
          119.99 725.99998 -99 callsubr
          vstem
          -65 callgsubr
          192 callsubr
          -107 callgsubr
        </CharString>
        <CharString name="o.ss06">
          67 -39 callsubr
          193 callsubr
          734.99998 -92 callgsubr
          -88 callgsubr
          192 callsubr
          rmoveto
          -32 vlineto
          -315.98 202 -229.99 287.01 286 72 callsubr
          229.99 315.98 vhcurveto
          32 vlineto
          315 165 callgsubr
          229.99 -288.01 -285 -202 -229.99 -315 vhcurveto
          120 -32 rmoveto
          32 vlineto
          233 139.02 210 227.99 228 140 -210 -233 vhcurveto
          -32 vlineto
          -238 -140 -205.99 -226 -230 -139.02 188 callsubr
          238 vhcurveto
          endchar
        </CharString>
        <CharString name="oacute">
          -10 callsubr
          692.98 1533.99 rmoveto
          -45 callsubr
          231 279 rlineto
          -746.99 -977 -107 callgsubr
        </CharString>
        <CharString name="ocircumflex">
          60 -20 -104 callgsubr
          918 -104 callgsubr
          154.99998 267.02 98 callgsubr
          725.99998 -99 callsubr
          vstem
          849 1267 rmoveto
          -240 257 100 callgsubr
          -255.02 rlineto
          -12 68 callsubr
          164 callgsubr
          183 168.98 -183 rlineto
          184 callsubr
          hlineto
          -758 -699.99 -107 callgsubr
        </CharString>
        <CharString name="odieresis">
          60 -20 -104 callgsubr
          918 -104 callgsubr
          212.98999 160 98 callgsubr
          62.01 -43 callgsubr
          271.99998 165 62 -99 callsubr
          vstem
          354.98 1474.99 rmoveto
          -52 107 callsubr
          -35 106 callgsubr
          -78 callsubr
          89 callsubr
          -35 52 58 callgsubr
          -87 callsubr
          126 callgsubr
          -74 callsubr
          35 79 callgsubr
          117 callsubr
          31 34.02 45 45 -31 36 -52 hvcurveto
          -700.99 -918 -107 callgsubr
        </CharString>
        <CharString name="oe">
          804 -20 101 456.98 -98 callsubr
          360.00002 6 callgsubr
          14 callsubr
          119 717.98999 127 645.01001 -92 callgsubr
          1823.99 537.99 rmoveto
          102.02 vlineto
          279 -159 -26 callgsubr
          -268.98 vhcurveto
          -169 1 -152 -105 -79.02 -168 rrcurveto
          167 -75 -149 105 -200 hhcurveto
          -291 -186 -229.99 -315 hvcurveto
          -32 vlineto
          -315.98 186 -229 293 197 28 callsubr
          103.99 165 75 vhcurveto
          -165 79.02 153 -103.99 185 hhcurveto
          -26 callgsubr
          -83 callsubr
          60 86 callsubr
          hvcurveto
          -51 83 rlineto
          185 callgsubr
          -70 -99 -47.99 -156 hhcurveto
          -214 -139.02 192 237 hvcurveto
          28 vlineto
          -127 -13 rmoveto
          -238 43 callsubr
          -205.99 -234 -236 43 callsubr
          188 callsubr
          238 vhcurveto
          32 vlineto
          233 -56 callgsubr
          210 234 236 -56 callgsubr
          -210 -233 vhcurveto
          464.02 443 rmoveto
          197 111 -149.02 -181.99 hvcurveto
          -29 -640 vlineto
          204.98 -2 callgsubr
          128 191 callgsubr
          179.02 hhcurveto
          endchar
        </CharString>
        <CharString name="ograve">
          -10 callsubr
          642.99 1254.99 -67 callgsubr
          -443 -698 -107 callgsubr
        </CharString>
        <CharString name="one">
          48 0 43 1378.01999 -70 callsubr
          573.99 -92 callgsubr
          187 callsubr
          hmoveto
          1461.99 -19.99 vlineto
          -495 -185 rlineto
          -112 vlineto
          395 147 rlineto
          -1311.99 vlineto
          endchar
        </CharString>
        <CharString name="one.smcp">
          -63 0 43 1084.03 -70 callsubr
          512.98 -99 callsubr
          vstem
          633 hmoveto
          1167.99 -19 vlineto
          -454 -152 rlineto
          -28 callsubr
          vlineto
          353 111 rlineto
          -1019.99 vlineto
          endchar
        </CharString>
        <CharString name="one.sup">
          0 43 70 callsubr
          hmoveto
          790 -13 vlineto
          -324 -106 rlineto
          -37 callgsubr
          vlineto
          232 69.02 rlineto
          -663 vlineto
          endchar
        </CharString>
        <CharString name="one.tnum">
          -107 endchar
        </CharString>
        <CharString name="ordfeminine">
          -181 690.99 -43 callsubr
          271.01 82.98 239.01 26 callgsubr
          hstemhm
          157.98 -56 callsubr
          10 callsubr
          -56 callsubr
          354.00002 11 callgsubr
          hintmask 11110100
          761 704.98 rmoveto
          -18 58 -8 58 65 vvcurveto
          314 vlineto
          183 -110 93 -161 vhcurveto
          hintmask 11101100
          -181 -27 callsubr
          -98 -135 hvcurveto
          -56 callsubr
          -6 rlineto
          -43 callsubr
          74 47 118 108 54 -65.99 104 callgsubr
          vhcurveto
          -60 -139 vlineto
          hintmask 11110100
          -215 143 callsubr
          -86 -146 -130.99 88 -87 161 -104 callgsubr
          76 51 58 150 callgsubr
          hvcurveto
          4.02 -34 7 -31 151 callgsubr
          -30 rrcurveto
          -222 82 rmoveto
          -112.99 -48 40 callgsubr
          76 92 76 53 146 hvcurveto
          138 -167.02 hlineto
          -53 -35 -86 -51 -78.01 hhcurveto
          endchar
        </CharString>
        <CharString name="ordmasculine">
          -165 689.99 -43 callsubr
          593.99998 26 callgsubr
          hstem
          134.98 109.01 430.00002 -83 callgsubr
          vstem
          134.98 1131.99 rmoveto
          -99 vlineto
          -200 78 callgsubr
          123 callsubr
          72 callsubr
          200 122 101 callsubr
          200 vhcurveto
          99 vlineto
          161 callsubr
          -122 143 -202 -198 183 callgsubr
          -143 -200.99 vhcurveto
          123 callgsubr
          -99 rmoveto
          99 vlineto
          138 70 110 144 146 70 -110 -138 vhcurveto
          -99 vlineto
          -138 -70 -36 callsubr
          -144.02 -149 -47 callgsubr
          123 callgsubr
          138 vhcurveto
          endchar
        </CharString>
        <CharString name="oslash">
          53 64 callsubr
          -77 callsubr
          -99 callsubr
          725.99 -92 callgsubr
          856.99 1009.99 rmoveto
          100 204 rlineto
          -93 hlineto
          -78 -160 rlineto
          31 -63 148 callgsubr
          17 -80.02 hhcurveto
          -291 -191 -229.99 -315 hvcurveto
          -32 vlineto
          -201.99 78 -167 133 -93 vhcurveto
          -99 -203 rlineto
          93 hlineto
          -29 callsubr
          75 callsubr
          rlineto
          -26.99 59 67.02 -14 90 callgsubr
          hhcurveto
          293.01 73 callgsubr
          229 315.98 hvcurveto
          32 vlineto
          194.99 105 callsubr
          163 183 callgsubr
          95.01 vhcurveto
          -647.99 -485.01 rmoveto
          32 vlineto
          233 128 210 233.99 64 56.02 -15.01 -27 47 vhcurveto
          -388.02 -795.02 rlineto
          -93 82 -47.99 134 146 vvcurveto
          726 hmoveto
          -238 -128 -205 -234 -58 -51 12 22.02 -44 vhcurveto
          386.01 790 rlineto
          -53 callgsubr
          -83 44 -129 -137 vvcurveto
          endchar
        </CharString>
        <CharString name="otilde">
          60 -20 -104 callgsubr
          918 -104 callgsubr
          178.99998 -34 callsubr
          -65 callgsubr
          -105 callsubr
          28.99998 89 494 90 24 -99 callsubr
          hintmask 00000000
          hintmask 11101111
          913 1494 rmoveto
          -37 callgsubr
          6 rlineto
          105 callgsubr
          -49 -47.99 66 callsubr
          -109 -43 110 -125.99 hhcurveto
          hintmask 11011111
          -110 -85.02 42 callgsubr
          -127 hvcurveto
          88 callgsubr
          -4 rlineto
          74 49 45 62 vhcurveto
          55 callsubr
          hintmask 11101111
          123 callgsubr
          87 -22 callgsubr
          129 hvcurveto
          hintmask 11101001
          -822 -937 -107 callgsubr
        </CharString>
        <CharString name="p">
          47 -20 -104 callgsubr
          916 104 hstem
          194 callgsubr
          632.01 -92 callgsubr
          1026.99 550.99 rmoveto
          336 -151 215 -264.01 12 callsubr
          -112 -64 -109 105 callsubr
          vhcurveto
          -6 153 rlineto
          -112 -1498 -105 callsubr
          553 hlineto
          -98 73.02 108 callgsubr
          -59 153 hhcurveto
          262 151 227 187 callgsubr
          hvcurveto
          -120 hmoveto
          103 callgsubr
          10 callsubr
          -196.02 -23 callsubr
          192 callgsubr
          -97 80.02 54 callsubr
          -98 callsubr
          80 callsubr
        </CharString>
        <CharString name="p.ss06">
          54 -76 callsubr
          -104 callgsubr
          916.99 104 hstem
          194 callgsubr
          651.99998 -99 callsubr
          vstem
          1047 550.99 rmoveto
          336 -171 215 -264.01 -156 -112.99 -66 -110.99 125 callgsubr
          vhcurveto
          -13.99 157 rlineto
          -93 callsubr
          -1498 -105 callsubr
          552 hlineto
          -97 73.02 108 callgsubr
          -59.98 153 hhcurveto
          262 171 227.98 187 callgsubr
          hvcurveto
          9 callsubr
          hmoveto
          103 callgsubr
          -122 -197 -23 callsubr
          192 callgsubr
          -97 81 54 callsubr
          122 -191 -256 hvcurveto
          endchar
        </CharString>
        <CharString name="paragraph">
          -114 -8 callsubr
          680.98 141 callgsubr
          vstem
          680.98 hmoveto
          121.02 -69 callsubr
          -227 hlineto
          -318.02 -174 165 callgsubr
          -268 -270.01 174 -198 318.02 hvcurveto
          71 callsubr
          hlineto
          endchar
        </CharString>
        <CharString name="parenleft">
          -434 181 callgsubr
          140.98 -99 callsubr
          vstem
          140.98 588.98 rmoveto
          -1 callsubr
          vlineto
          -534 245 -386.99 207 -123 vhcurveto
          29 77 rlineto
          -178 128.99 166 callgsubr
          367 469 vvcurveto
          20 vlineto
          467.99 -26 callgsubr
          367 178 101 callgsubr
          vhcurveto
          -29 82 rlineto
          -207 -124 -245 -400 -520.01 vvcurveto
          endchar
        </CharString>
        <CharString name="parenright">
          -420 181 callgsubr
          393.99 -92 callgsubr
          513.99 573.99 rmoveto
          14.99 vlineto
          520.01 -245 400 -206.99 124 vhcurveto
          -29 -77 rlineto
          170.99 -124 190 -372 -467.99 vvcurveto
          -20 vlineto
          -469 -183 -370.99 120 callsubr
          -124.99 vhcurveto
          29 -77 rlineto
          206.99 123 245 386.99 534 vvcurveto
          endchar
        </CharString>
        <CharString name="percent">
          426 -76 callsubr
          86.97 504.01001 87 142.98999 87 503.01001 87 hstem
          110 -43 callsubr
          376.98999 12 callgsubr
          162.00002 -71 callgsubr
          375.98999 12 callgsubr
          vstem
          110 1175.98 rmoveto
          -76.99 vlineto
          -163 111 -136 173 callgsubr
          136 163 vhcurveto
          74 callgsubr
          vlineto
          165 -111 136 -174 -174 -111 -136 -165 vhcurveto
          -43 callsubr
          -76.99 rmoveto
          74 callgsubr
          vlineto
          123 callgsubr
          63 105 126.02 127 27 callgsubr
          -105 -36 callsubr
          vhcurveto
          -76.99 vlineto
          43 callgsubr
          -59.99 -104 120 callgsubr
          -129.99 -61 105 -2 callsubr
          vhcurveto
          229 -978 rmoveto
          711 1137.99 -75.02 48 -710.99 -1138.01 rlineto
          482 188 rmoveto
          -3 callsubr
          vlineto
          -164 111 -36 callgsubr
          173 callgsubr
          42 callsubr
          164 vhcurveto
          11 callsubr
          vlineto
          164 -110 136 -175 -174 -111 -136 -164 vhcurveto
          97 -3 callsubr
          rmoveto
          11 callsubr
          vlineto
          114.01 63 99 78 callgsubr
          127 27 callgsubr
          -99 143 callsubr
          vhcurveto
          -3 callsubr
          vlineto
          -36 callsubr
          -59.99 -104 -126.01 -129.99 -60 105 -56 callsubr
          vhcurveto
          endchar
        </CharString>
        <CharString name="period">
          -599 -1 callgsubr
          -43 callgsubr
          hstem
          189 callsubr
          170 vstem
          229.99 156 rmoveto
          -53 -31 -36 -47 -46 31 95 callsubr
          endchar
        </CharString>
        <CharString name="periodcentered">
          -584 635.98 165 176 callgsubr
          171 vstem
          144 callsubr
          800.99 rmoveto
          -53 -32.02 -37 -47 -46 32.02 -35 53 53 33 35 46 47 -33 37 -53 hvcurveto
          endchar
        </CharString>
        <CharString name="plus">
          68 627.99 108 callgsubr
          hstem
          509.99 -92 callgsubr
          1073.99 740.99 rmoveto
          -444 465 -120 -465 -434.01 -112.99 434.01 -482.02 120 482.02 444 hlineto
          endchar
        </CharString>
        <CharString name="plusminus">
          -2 0 -104 callgsubr
          625.98999 101 hstem
          498.99 111 vstem
          610 828.99 rmoveto
          438.01 -111 -438.01 -414 -101 414 -438.99 111 438.99 390.99 101 vlineto
          -872 -828.99 rmoveto
          835.01 -104 callgsubr
          -835.01 hlineto
          endchar
        </CharString>
        <CharString name="q">
          55 64 callsubr
          4 callsubr
          631.01 5 callsubr
          866.98 1082 rmoveto
          -5 -146 rlineto
          104 105 callsubr
          -110 62 -151 hhcurveto
          -264 -155 -33 callgsubr
          155 -227 262 150 111 58 -43 callsubr
          73.02 vhcurveto
          -549.99 -97 callsubr
          1498 vlineto
          -430 -1000.02 rmoveto
          -23 callsubr
          10 callsubr
          196.02 3 callgsubr
          251.99 -98 callsubr
          197.02 220 39 callgsubr
          94 -97.02 -105 49 vhcurveto
          -529 vlineto
          36 callgsubr
          -55 -98 125 callsubr
          -158 hhcurveto
          endchar
        </CharString>
        <CharString name="q.ss06">
          62 -39 callsubr
          135 callsubr
          119 vstem
          881.99 1082 rmoveto
          -11 -149 rlineto
          106 125 callgsubr
          -111 63 -151.99 hhcurveto
          -264 -175 95 callgsubr
          175 -221.98 262 150 111 58.98 -43 callsubr
          72.99 vhcurveto
          -549.99 -83 callsubr
          1498 vlineto
          -430 -1001 rmoveto
          -218 -122 191 13 callgsubr
          hvcurveto
          21.02 vlineto
          255 122 199 220.02 39 callgsubr
          94 -97.02 -105 -38 callsubr
          vhcurveto
          -529 vlineto
          36 callgsubr
          168 callsubr
          -98 -80 -158 hhcurveto
          endchar
        </CharString>
        <CharString name="question">
          -158 -1 callgsubr
          14 callgsubr
          1218.98 106 hstemhm
          359.99 -43 callgsubr
          -148.99 -105 callsubr
          227.99998 -105 callsubr
          hintmask 11011000
          375.99 404.99 rmoveto
          -105 callsubr
          hlineto
          -2 callsubr
          27.02 -43 callsubr
          -53 callgsubr
          73 vhcurveto
          139 127.02 97 117 178 vvcurveto
          221 -133 152 -239 -212.99 -172 -131.99 -228 -3 vhcurveto
          120 hlineto
          121 callsubr
          2 112 95 -54 callsubr
          hhcurveto
          166 86 -109 -159 -159.99 -76 -69.02 72 callgsubr
          99 callsubr
          hvcurveto
          -122.02 -118 -40.98 -74 -2 -170 rrcurveto
          hintmask 11101000
          66 -254 rmoveto
          79 callgsubr
          -54 callgsubr
          -35 -78 callsubr
          -45 -10 callgsubr
          -34.97 40 callsubr
          51 -42 callgsubr
          34.97 84 callgsubr
          -51 hvcurveto
          endchar
        </CharString>
        <CharString name="questiondown">
          -147 -382.99 106 1217.98001 14 callgsubr
          hstemhm
          168 callgsubr
          -99 callsubr
          193.99 165 -135 119 hintmask 00000000
          hintmask 11110000
          484.99 940.99 rmoveto
          52 30 36 45 45 -30 34 -52 -51 -32 -34 -45 -45 32 -36 51 hvcurveto
          hintmask 10101000
          66 -253 rmoveto
          -27 callsubr
          hlineto
          72 callgsubr
          -1 callgsubr
          -70 -86 125 callgsubr
          vhcurveto
          -135 -126 143 callsubr
          -130 -192.98 vvcurveto
          -228 140 -144 242.02 212.99 166 128 234 2.99 vhcurveto
          -67 callsubr
          hlineto
          -159 -2 -28 callsubr
          -97 12 callsubr
          hhcurveto
          -169 -93 98 170 174.98 93 81 103 105 hvcurveto
          121 120 24 46 2 170 rrcurveto
          endchar
        </CharString>
        <CharString name="quotedbl">
          -499 1082.98 453.02 hstem
          189 callsubr
          98.01 138.00002 -71 callgsubr
          vstem
          244 1396.98 rmoveto
          139.02 -4 callgsubr
          -146 vlineto
          -2.99 -307.02 rlineto
          81 hlineto
          255 314 rmoveto
          139.02 -97 -142 vlineto
          -3 -311.01 rlineto
          81 hlineto
          endchar
        </CharString>
        <CharString name="quotedblbase">
          -494 -241 478 hstem
          -11 callgsubr
          -105 callsubr
          113.99998 -99 callsubr
          vstem
          13 callgsubr
          -88 callgsubr
          rmoveto
          147 -60 callgsubr
          -150 vlineto
          -108.99 -30 -81 -61 -86.02 vhcurveto
          71 -52 rlineto
          87 81 53 101 callgsubr
          -26 callsubr
          vvcurveto
          234 hmoveto
          147 9 callsubr
          -150 vlineto
          -108.99 107 callsubr
          -81 146 callsubr
          -86.02 vhcurveto
          71 -52 rlineto
          87 81 54 101 callgsubr
          -26 callsubr
          vvcurveto
          endchar
        </CharString>
        <CharString name="quotedblleft">
          -476 178 callsubr
          145 callgsubr
          119 131 119 vstem
          145 callgsubr
          1233.98 rmoveto
          -111.99 -83 callsubr
          -27 callgsubr
          vlineto
          106 31 11 callsubr
          27 callgsubr
          83 vhcurveto
          -71 52 rlineto
          -87 -48 callsubr
          -53 9 callsubr
          -122 vvcurveto
          250 hmoveto
          -111.99 -83 callsubr
          -27 callgsubr
          vlineto
          106 31 11 callsubr
          62 83 vhcurveto
          -71 52 rlineto
          -87 -48 callsubr
          -54 9 callsubr
          -122 vvcurveto
          endchar
        </CharString>
        <CharString name="quotedblright">
          -471 178 callgsubr
          75 callsubr
          -97 callsubr
          126.01 -11 callsubr
          vstem
          279.98 52 callsubr
          -62 -81.98 vhcurveto
          27 callsubr
          151 callsubr
          rlineto
          86.02 78 53.99 121 122 vvcurveto
          244 hmoveto
          122 callsubr
          -117.99 -118.01 vlineto
          -105 -32 125 callsubr
          -51 callgsubr
          -81.98 vhcurveto
          71 151 callsubr
          rlineto
          87 157 callsubr
        </CharString>
        <CharString name="quoteleft">
          -723 178 callsubr
          190 callgsubr
          119 vstem
          98.98 1233.98 rmoveto
          -111.99 -83 callsubr
          -27 callgsubr
          vlineto
          106 25 callgsubr
          11 callsubr
          27 callgsubr
          83 vhcurveto
          -71 52 rlineto
          -87 -48 callsubr
          -53 9 callsubr
          -122 vvcurveto
          endchar
        </CharString>
        <CharString name="quoteright">
          -723 178 callgsubr
          73 callsubr
          5 callsubr
          273.98 52 callsubr
          -51 callgsubr
          -81.98 vhcurveto
          126 callsubr
          151 callsubr
          rlineto
          87.02 157 callsubr
        </CharString>
        <CharString name="quotesinglbase">
          -734 -231.99 437.98 hstem
          -11 callgsubr
          -92 callgsubr
          13 callgsubr
          -88 callgsubr
          rmoveto
          116 -60 callgsubr
          -67 callsubr
          vlineto
          -105 -30 -48 callsubr
          -61 -83 vhcurveto
          71 -52 rlineto
          87 -29 callsubr
          53 121 122 vvcurveto
          endchar
        </CharString>
        <CharString name="quotesingle">
          -739 1090.99 445 hstem
          121 callgsubr
          -104 callgsubr
          vstem
          169 callgsubr
          1396 rmoveto
          140 -66 callsubr
          -149.02 vlineto
          -5 -296 rlineto
          89 hlineto
          endchar
        </CharString>
        <CharString name="r">
          -398 0 43 184 callgsubr
          -27 callgsubr
          hstem
          119 callsubr
          vstem
          659.99 1089.99 rmoveto
          6 -16 -34 6 -30 hhcurveto
          -145 -93 callsubr
          105 callsubr
          -117 -58 hvcurveto
          -2.99 170 rlineto
          -117 -1082 -105 callsubr
          745.98 hlineto
          142 40 98 100 162.02 hhcurveto
          29.98 24 -3 -4 26 hvcurveto
          endchar
        </CharString>
        <CharString name="registered">
          554 -76 callsubr
          86.97 601.01001 -65 callgsubr
          312.01 -65 callgsubr
          229.01 86 hstemhm
          -88 callsubr
          -53 callgsubr
          364.99998 98.01 353.00002 99 -85 98 321 -53 callgsubr
          hintmask 1111111010000000
          812.99 111 callsubr
          -392 -318 144 callgsubr
          -423.02 -423 318 -326.98 392 391 318 172 callgsubr
          -318 142 callgsubr
          -391 hvcurveto
          -1410 vmoveto
          -344 136 callgsubr
          344 91 callgsubr
          290 444 rmoveto
          93 -32 -29 callsubr
          145 callsubr
          34 vhcurveto
          hintmask 1111110110000000
          -88 callgsubr
          41 40 callsubr
          65 167 callsubr
          vvcurveto
          -43 callgsubr
          -111 83 -195 vhcurveto
          -257 -839 -3 callgsubr
          345 hlineto
          hintmask 1111111010000000
          188 callgsubr
          hlineto
          121.02 45 -47 -111 hvcurveto
          -43 vlineto
          -29 0 -81 14 -34 vhcurveto
          -104 callgsubr
          16 hlineto
          -12 30 -5 47 50 vvcurveto
          hintmask 1111110110000000
          -272 292.99 rmoveto
          -180 312.01 121 callsubr
          hlineto
          156 52.02 -47 -112 -100 -86.02 -52 -12 callgsubr
          -1 hvcurveto
          endchar
        </CharString>
        <CharString name="ring">
          -452 1207.99 72 233.98999 72 hstem
          -11 callsubr
          76 232.98999 77 vstem
          310.98 1585.99 rmoveto
          -109 -84 36 callsubr
          72 callgsubr
          -28 callsubr
          84 -80 109 33 callgsubr
          hvcurveto
          -305.99 vmoveto
          -67.99 -49 51 64 -65 callsubr
          49 52 76 callgsubr
          -5 callgsubr
          hvcurveto
          endchar
        </CharString>
        <CharString name="s">
          -50 -20 -104 callgsubr
          918 139 callsubr
          29 callgsubr
          -97 callsubr
          540.99998 141 callgsubr
          143 callsubr
          -99 callsubr
          hintmask 11101000
          514.99 503.99 rmoveto
          -80 callsubr
          hintmask 11110000
          92 callgsubr
          185 -149 138 -251 165 callsubr
          -146 -133 -161 vhcurveto
          hintmask 11101000
          -178 42 callsubr
          -75 241 -51 vhcurveto
          endchar
        </CharString>
</ttFont>
